<svg xmlns="http://www.w3.org/2000/svg" xmlns:xlink="http://www.w3.org/1999/xlink" width="1000" zoomAndPan="magnify" viewBox="0 0 750 749.999995" height="1000" preserveAspectRatio="xMidYMid meet" version="1.0"><defs><clipPath id="e3fa814ec8"><path d="M 112.832031 50.34375 L 649.917969 50.34375 L 649.917969 713 L 112.832031 713 Z M 112.832031 50.34375 " clip-rule="nonzero"/></clipPath><clipPath id="53df14c31c"><path d="M 148.082031 50.34375 L 614.667969 50.34375 C 634.136719 50.34375 649.917969 66.128906 649.917969 85.59375 L 649.917969 677.15625 C 649.917969 696.621094 634.136719 712.40625 614.667969 712.40625 L 148.082031 712.40625 C 128.613281 712.40625 112.832031 696.621094 112.832031 677.15625 L 112.832031 85.59375 C 112.832031 66.128906 128.613281 50.34375 148.082031 50.34375 Z M 148.082031 50.34375 " clip-rule="nonzero"/></clipPath><clipPath id="51fcfa4b43"><path d="M 112.835938 50.34375 L 649.832031 50.34375 L 649.832031 712.59375 L 112.835938 712.59375 Z M 112.835938 50.34375 " clip-rule="nonzero"/></clipPath><clipPath id="834c25016f"><path d="M 148.085938 50.34375 L 614.664062 50.34375 C 634.128906 50.34375 649.914062 66.125 649.914062 85.59375 L 649.914062 677.144531 C 649.914062 696.613281 634.128906 712.394531 614.664062 712.394531 L 148.085938 712.394531 C 128.617188 712.394531 112.835938 696.613281 112.835938 677.144531 L 112.835938 85.59375 C 112.835938 66.125 128.617188 50.34375 148.085938 50.34375 Z M 148.085938 50.34375 " clip-rule="nonzero"/></clipPath><clipPath id="723bc8ae8a"><path d="M 124.59375 181.207031 L 638 181.207031 L 638 680.707031 L 124.59375 680.707031 Z M 124.59375 181.207031 " clip-rule="nonzero"/></clipPath></defs><g clip-path="url(#e3fa814ec8)"><g clip-path="url(#53df14c31c)"><path fill="#e6affc" d="M 112.832031 50.34375 L 649.917969 50.34375 L 649.917969 713.308594 L 112.832031 713.308594 Z M 112.832031 50.34375 " fill-opacity="1" fill-rule="nonzero"/></g></g><g clip-path="url(#51fcfa4b43)"><g clip-path="url(#834c25016f)"><path stroke-linecap="butt" transform="matrix(0.75, 0, 0, 0.75, 112.835176, 50.345122)" fill="none" stroke-linejoin="miter" d="M 47.001014 -0.0018298 L 669.105171 -0.0018298 C 695.058296 -0.0018298 716.105171 21.039837 716.105171 46.998169 L 716.105171 835.732532 C 716.105171 861.690865 695.058296 882.732532 669.105171 882.732532 L 47.001014 882.732532 C 21.042681 882.732532 0.00101487 861.690865 0.00101487 835.732532 L 0.00101487 46.998169 C 0.00101487 21.039837 21.042681 -0.0018298 47.001014 -0.0018298 Z M 47.001014 -0.0018298 " stroke="#000000" stroke-width="54" stroke-opacity="1" stroke-miterlimit="4"/></g></g><g clip-path="url(#723bc8ae8a)"><path fill="#000000" d="M 637.96875 229.199219 L 637.96875 373.210938 C 637.554688 376.917969 636.710938 380.527344 635.4375 384.039062 C 634.167969 387.546875 632.503906 390.859375 630.445312 393.972656 C 627.480469 398.078125 623.996094 401.675781 619.988281 404.769531 C 615.980469 407.863281 611.617188 410.328125 606.894531 412.15625 C 602.339844 414.34375 597.597656 416.007812 592.671875 417.148438 C 587.746094 418.289062 582.757812 418.878906 577.703125 418.914062 L 561.539062 418.914062 L 561.539062 464.773438 C 561.121094 481.773438 560.703125 498.820312 560.285156 515.910156 C 551.996094 508.109375 544.957031 501.28125 539.523438 495.914062 C 522.246094 478.984375 513.8125 470.347656 503.292969 459.199219 C 494.515625 449.863281 494.027344 449.304688 489.847656 444.984375 C 470.757812 424.988281 465.742188 422.691406 463.230469 421.644531 C 458.070312 419.429688 452.683594 418.429688 447.070312 418.648438 L 446.859375 425.757812 L 446.859375 459.617188 C 446.859375 480.796875 447 502.046875 446.789062 523.226562 C 446.835938 524.226562 446.855469 525.230469 446.851562 526.230469 C 446.84375 527.230469 446.8125 528.234375 446.753906 529.234375 C 446.699219 530.234375 446.613281 531.230469 446.503906 532.226562 C 446.394531 533.222656 446.261719 534.214844 446.097656 535.203125 C 445.9375 536.191406 445.753906 537.175781 445.539062 538.152344 C 445.328125 539.132812 445.089844 540.105469 444.828125 541.074219 C 444.566406 542.039062 444.28125 543 443.96875 543.949219 C 443.65625 544.902344 443.320312 545.84375 442.957031 546.777344 C 442.597656 547.714844 442.210938 548.636719 441.800781 549.550781 C 441.394531 550.464844 440.960938 551.371094 440.503906 552.261719 C 440.050781 553.152344 439.570312 554.03125 439.070312 554.898438 C 438.566406 555.765625 438.042969 556.621094 437.5 557.460938 C 436.953125 558.300781 436.386719 559.125 435.796875 559.9375 C 435.207031 560.746094 434.597656 561.542969 433.96875 562.320312 C 433.339844 563.097656 432.691406 563.859375 432.019531 564.605469 C 431.351562 565.351562 430.664062 566.078125 429.957031 566.789062 C 429.25 567.496094 428.523438 568.1875 427.78125 568.859375 C 427.039062 569.53125 426.277344 570.183594 425.503906 570.816406 C 424.726562 571.449219 423.933594 572.0625 423.125 572.652344 C 422.316406 573.242188 421.492188 573.8125 420.65625 574.363281 C 419.816406 574.910156 418.964844 575.4375 418.101562 575.941406 C 417.234375 576.445312 416.355469 576.929688 415.464844 577.386719 C 414.574219 577.847656 413.675781 578.28125 412.761719 578.695312 C 411.847656 579.105469 410.925781 579.492188 409.992188 579.859375 C 409.058594 580.222656 408.117188 580.5625 407.167969 580.878906 C 406.214844 581.195312 405.257812 581.484375 404.292969 581.75 C 403.328125 582.015625 402.355469 582.253906 401.375 582.472656 C 400.398438 582.6875 399.414062 582.875 398.425781 583.039062 C 397.4375 583.203125 396.449219 583.34375 395.453125 583.457031 C 394.457031 583.570312 393.460938 583.65625 392.460938 583.71875 C 391.460938 583.777344 390.460938 583.8125 389.457031 583.824219 C 388.457031 583.832031 387.453125 583.816406 386.453125 583.773438 C 362.835938 583.910156 339.214844 584.398438 315.667969 583.492188 C 310.007812 583.265625 304.574219 584.265625 299.363281 586.488281 C 296.785156 587.535156 291.769531 589.902344 272.679688 609.828125 C 268.5 614.148438 268.082031 614.707031 259.234375 624.042969 C 248.78125 635.191406 240.351562 643.828125 223.074219 660.757812 C 217.570312 666.125 210.53125 672.953125 202.3125 680.753906 C 201.894531 663.6875 201.40625 646.617188 200.988281 629.617188 L 200.988281 583.773438 L 184.894531 583.773438 C 179.828125 583.738281 174.824219 583.152344 169.886719 582.011719 C 164.953125 580.871094 160.199219 579.207031 155.632812 577.015625 C 150.910156 575.1875 146.542969 572.726562 142.535156 569.632812 C 138.527344 566.539062 135.042969 562.9375 132.082031 558.828125 C 130.039062 555.722656 128.386719 552.417969 127.128906 548.917969 C 125.871094 545.417969 125.039062 541.820312 124.632812 538.125 L 124.632812 394.042969 C 125.410156 391.082031 126.382812 388.1875 127.558594 385.363281 C 128.734375 382.539062 130.101562 379.808594 131.65625 377.171875 C 133.210938 374.535156 134.941406 372.019531 136.847656 369.625 C 138.75 367.226562 140.8125 364.976562 143.027344 362.863281 C 145.246094 360.753906 147.597656 358.808594 150.082031 357.027344 C 152.570312 355.242188 155.167969 353.640625 157.878906 352.214844 C 160.589844 350.792969 163.382812 349.566406 166.261719 348.53125 C 169.144531 347.496094 172.082031 346.664062 175.078125 346.039062 L 315.675781 346.039062 C 315.605469 328.96875 315.746094 311.828125 315.746094 294.757812 C 315.675781 283.683594 315.746094 272.671875 315.746094 260.828125 C 315.535156 254.417969 315.324219 247.941406 315.117188 241.460938 C 317.207031 207.808594 335.878906 189.277344 366.464844 181.195312 L 587.535156 181.195312 C 590.527344 181.824219 593.464844 182.65625 596.34375 183.695312 C 599.222656 184.730469 602.015625 185.960938 604.722656 187.386719 C 607.429688 188.808594 610.027344 190.414062 612.511719 192.195312 C 615 193.980469 617.351562 195.925781 619.566406 198.035156 C 621.78125 200.144531 623.84375 202.398438 625.746094 204.792969 C 627.652344 207.1875 629.382812 209.703125 630.9375 212.335938 C 632.492188 214.972656 633.859375 217.699219 635.039062 220.523438 C 636.214844 223.347656 637.191406 226.238281 637.96875 229.199219 Z M 637.96875 229.199219 " fill-opacity="1" fill-rule="nonzero"/><path fill="#000000" d="M 307.308594 425.8125 L 186.425781 425.8125 C 185.738281 425.8125 185.058594 425.878906 184.386719 426.011719 C 183.714844 426.148438 183.0625 426.34375 182.425781 426.609375 C 181.792969 426.871094 181.191406 427.191406 180.621094 427.574219 C 180.050781 427.953125 179.523438 428.386719 179.035156 428.875 C 178.550781 429.359375 178.117188 429.886719 177.738281 430.457031 C 177.355469 431.027344 177.035156 431.628906 176.769531 432.261719 C 176.507812 432.898438 176.308594 433.550781 176.175781 434.222656 C 176.042969 434.898438 175.976562 435.578125 175.976562 436.261719 C 175.976562 436.949219 176.042969 437.628906 176.175781 438.300781 C 176.308594 438.976562 176.507812 439.628906 176.769531 440.261719 C 177.035156 440.894531 177.355469 441.5 177.738281 442.070312 C 178.117188 442.640625 178.550781 443.167969 179.035156 443.652344 C 179.523438 444.136719 180.050781 444.570312 180.621094 444.953125 C 181.191406 445.332031 181.792969 445.65625 182.425781 445.917969 C 183.0625 446.179688 183.714844 446.378906 184.386719 446.511719 C 185.058594 446.648438 185.738281 446.714844 186.425781 446.714844 L 307.308594 446.714844 C 307.992188 446.714844 308.671875 446.648438 309.347656 446.511719 C 310.019531 446.378906 310.671875 446.179688 311.304688 445.917969 C 311.941406 445.65625 312.542969 445.332031 313.113281 444.953125 C 313.683594 444.570312 314.210938 444.136719 314.695312 443.652344 C 315.183594 443.167969 315.613281 442.640625 315.996094 442.070312 C 316.378906 441.5 316.699219 440.894531 316.960938 440.261719 C 317.226562 439.628906 317.421875 438.976562 317.558594 438.300781 C 317.691406 437.628906 317.757812 436.949219 317.757812 436.261719 C 317.757812 435.578125 317.691406 434.898438 317.558594 434.222656 C 317.421875 433.550781 317.226562 432.898438 316.960938 432.261719 C 316.699219 431.628906 316.378906 431.027344 315.996094 430.457031 C 315.613281 429.886719 315.183594 429.359375 314.695312 428.875 C 314.210938 428.386719 313.683594 427.953125 313.113281 427.574219 C 312.542969 427.191406 311.941406 426.871094 311.304688 426.609375 C 310.671875 426.34375 310.019531 426.148438 309.347656 426.011719 C 308.671875 425.878906 307.992188 425.8125 307.308594 425.8125 Z M 382.96875 481.828125 L 185.589844 481.828125 C 184.902344 481.828125 184.222656 481.894531 183.550781 482.027344 C 182.878906 482.164062 182.226562 482.359375 181.589844 482.625 C 180.957031 482.886719 180.355469 483.207031 179.785156 483.589844 C 179.214844 483.972656 178.6875 484.402344 178.199219 484.890625 C 177.714844 485.375 177.28125 485.902344 176.902344 486.472656 C 176.519531 487.042969 176.199219 487.644531 175.933594 488.28125 C 175.671875 488.914062 175.472656 489.566406 175.339844 490.242188 C 175.207031 490.914062 175.140625 491.59375 175.140625 492.277344 C 175.140625 492.964844 175.207031 493.644531 175.339844 494.316406 C 175.472656 494.992188 175.671875 495.644531 175.933594 496.277344 C 176.199219 496.914062 176.519531 497.515625 176.902344 498.085938 C 177.28125 498.65625 177.714844 499.183594 178.199219 499.667969 C 178.6875 500.152344 179.214844 500.585938 179.785156 500.96875 C 180.355469 501.351562 180.957031 501.671875 181.589844 501.933594 C 182.226562 502.195312 182.878906 502.394531 183.550781 502.527344 C 184.222656 502.664062 184.902344 502.730469 185.589844 502.730469 L 382.96875 502.730469 C 383.65625 502.730469 384.335938 502.664062 385.007812 502.527344 C 385.683594 502.394531 386.335938 502.195312 386.96875 501.933594 C 387.605469 501.671875 388.207031 501.351562 388.777344 500.96875 C 389.347656 500.585938 389.875 500.152344 390.359375 499.667969 C 390.84375 499.183594 391.277344 498.65625 391.660156 498.085938 C 392.042969 497.515625 392.363281 496.914062 392.625 496.277344 C 392.886719 495.644531 393.085938 494.992188 393.21875 494.316406 C 393.355469 493.644531 393.421875 492.964844 393.421875 492.277344 C 393.421875 491.59375 393.355469 490.914062 393.21875 490.238281 C 393.085938 489.566406 392.886719 488.914062 392.625 488.28125 C 392.363281 487.644531 392.042969 487.042969 391.660156 486.472656 C 391.277344 485.902344 390.84375 485.375 390.359375 484.890625 C 389.875 484.402344 389.347656 483.972656 388.777344 483.589844 C 388.207031 483.207031 387.605469 482.886719 386.96875 482.625 C 386.335938 482.359375 385.683594 482.164062 385.007812 482.027344 C 384.335938 481.894531 383.65625 481.828125 382.96875 481.828125 Z M 506.5 309.667969 L 385.617188 309.667969 C 384.933594 309.667969 384.253906 309.734375 383.578125 309.871094 C 382.90625 310.003906 382.253906 310.203125 381.617188 310.464844 C 380.984375 310.726562 380.382812 311.050781 379.8125 311.429688 C 379.242188 311.8125 378.714844 312.246094 378.226562 312.730469 C 377.742188 313.214844 377.308594 313.742188 376.929688 314.3125 C 376.546875 314.882812 376.226562 315.488281 375.960938 316.121094 C 375.699219 316.753906 375.5 317.40625 375.367188 318.082031 C 375.234375 318.753906 375.167969 319.433594 375.167969 320.121094 C 375.167969 320.804688 375.234375 321.484375 375.367188 322.160156 C 375.5 322.832031 375.699219 323.484375 375.960938 324.121094 C 376.226562 324.753906 376.546875 325.355469 376.929688 325.925781 C 377.308594 326.496094 377.742188 327.023438 378.226562 327.511719 C 378.714844 327.996094 379.242188 328.429688 379.8125 328.808594 C 380.382812 329.191406 380.984375 329.511719 381.617188 329.773438 C 382.253906 330.039062 382.90625 330.234375 383.578125 330.371094 C 384.253906 330.503906 384.933594 330.570312 385.617188 330.570312 L 506.5 330.570312 C 507.183594 330.570312 507.863281 330.503906 508.539062 330.371094 C 509.210938 330.234375 509.863281 330.039062 510.496094 329.773438 C 511.132812 329.511719 511.734375 329.191406 512.304688 328.808594 C 512.875 328.429688 513.402344 327.996094 513.886719 327.511719 C 514.375 327.023438 514.808594 326.496094 515.1875 325.925781 C 515.570312 325.355469 515.890625 324.753906 516.152344 324.121094 C 516.417969 323.484375 516.613281 322.832031 516.75 322.160156 C 516.882812 321.484375 516.949219 320.804688 516.949219 320.121094 C 516.949219 319.433594 516.882812 318.753906 516.75 318.082031 C 516.613281 317.40625 516.417969 316.753906 516.152344 316.121094 C 515.890625 315.488281 515.570312 314.882812 515.1875 314.3125 C 514.808594 313.742188 514.375 313.214844 513.886719 312.730469 C 513.402344 312.246094 512.875 311.8125 512.304688 311.429688 C 511.734375 311.050781 511.132812 310.726562 510.496094 310.464844 C 509.863281 310.203125 509.210938 310.003906 508.539062 309.871094 C 507.863281 309.734375 507.183594 309.667969 506.5 309.667969 Z M 577.007812 254.28125 L 379.554688 254.28125 C 378.871094 254.28125 378.191406 254.347656 377.519531 254.480469 C 376.84375 254.613281 376.191406 254.8125 375.558594 255.074219 C 374.921875 255.339844 374.320312 255.660156 373.75 256.042969 C 373.179688 256.421875 372.652344 256.855469 372.167969 257.339844 C 371.679688 257.828125 371.25 258.355469 370.867188 258.925781 C 370.484375 259.496094 370.164062 260.097656 369.902344 260.730469 C 369.640625 261.367188 369.441406 262.019531 369.304688 262.691406 C 369.171875 263.363281 369.105469 264.042969 369.105469 264.730469 C 369.105469 265.417969 369.171875 266.097656 369.304688 266.769531 C 369.441406 267.441406 369.636719 268.097656 369.902344 268.730469 C 370.164062 269.363281 370.484375 269.964844 370.867188 270.535156 C 371.25 271.109375 371.679688 271.636719 372.167969 272.121094 C 372.652344 272.605469 373.179688 273.039062 373.75 273.421875 C 374.320312 273.800781 374.921875 274.125 375.558594 274.386719 C 376.191406 274.648438 376.84375 274.847656 377.519531 274.980469 C 378.191406 275.113281 378.871094 275.183594 379.554688 275.183594 L 577.007812 275.183594 C 577.691406 275.179688 578.371094 275.113281 579.042969 274.980469 C 579.71875 274.84375 580.371094 274.648438 581.003906 274.382812 C 581.636719 274.121094 582.238281 273.800781 582.808594 273.417969 C 583.378906 273.035156 583.90625 272.601562 584.390625 272.117188 C 584.875 271.632812 585.308594 271.105469 585.691406 270.535156 C 586.070312 269.964844 586.394531 269.363281 586.65625 268.730469 C 586.917969 268.09375 587.117188 267.441406 587.25 266.769531 C 587.382812 266.097656 587.449219 265.417969 587.449219 264.730469 C 587.449219 264.046875 587.382812 263.367188 587.25 262.691406 C 587.117188 262.019531 586.917969 261.367188 586.65625 260.734375 C 586.394531 260.097656 586.070312 259.496094 585.691406 258.925781 C 585.308594 258.355469 584.875 257.828125 584.390625 257.34375 C 583.90625 256.859375 583.378906 256.425781 582.808594 256.042969 C 582.238281 255.664062 581.636719 255.339844 581.003906 255.078125 C 580.371094 254.816406 579.71875 254.617188 579.042969 254.480469 C 578.371094 254.347656 577.691406 254.28125 577.007812 254.28125 Z M 577.007812 254.28125 L 379.554688 254.28125 C 378.871094 254.28125 378.191406 254.347656 377.519531 254.480469 C 376.84375 254.613281 376.191406 254.8125 375.558594 255.074219 C 374.921875 255.339844 374.320312 255.660156 373.75 256.042969 C 373.179688 256.421875 372.652344 256.855469 372.167969 257.339844 C 371.679688 257.828125 371.25 258.355469 370.867188 258.925781 C 370.484375 259.496094 370.164062 260.097656 369.902344 260.730469 C 369.640625 261.367188 369.441406 262.019531 369.304688 262.691406 C 369.171875 263.363281 369.105469 264.042969 369.105469 264.730469 C 369.105469 265.417969 369.171875 266.097656 369.304688 266.769531 C 369.441406 267.441406 369.636719 268.097656 369.902344 268.730469 C 370.164062 269.363281 370.484375 269.964844 370.867188 270.535156 C 371.25 271.109375 371.679688 271.636719 372.167969 272.121094 C 372.652344 272.605469 373.179688 273.039062 373.75 273.421875 C 374.320312 273.800781 374.921875 274.125 375.558594 274.386719 C 376.191406 274.648438 376.84375 274.847656 377.519531 274.980469 C 378.191406 275.113281 378.871094 275.183594 379.554688 275.183594 L 577.007812 275.183594 C 577.691406 275.179688 578.371094 275.113281 579.042969 274.980469 C 579.71875 274.84375 580.371094 274.648438 581.003906 274.382812 C 581.636719 274.121094 582.238281 273.800781 582.808594 273.417969 C 583.378906 273.035156 583.90625 272.601562 584.390625 272.117188 C 584.875 271.632812 585.308594 271.105469 585.691406 270.535156 C 586.070312 269.964844 586.394531 269.363281 586.65625 268.730469 C 586.917969 268.09375 587.117188 267.441406 587.25 266.769531 C 587.382812 266.097656 587.449219 265.417969 587.449219 264.730469 C 587.449219 264.046875 587.382812 263.367188 587.25 262.691406 C 587.117188 262.019531 586.917969 261.367188 586.65625 260.734375 C 586.394531 260.097656 586.070312 259.496094 585.691406 258.925781 C 585.308594 258.355469 584.875 257.828125 584.390625 257.34375 C 583.90625 256.859375 583.378906 256.425781 582.808594 256.042969 C 582.238281 255.664062 581.636719 255.339844 581.003906 255.078125 C 580.371094 254.816406 579.71875 254.617188 579.042969 254.480469 C 578.371094 254.347656 577.691406 254.28125 577.007812 254.28125 Z M 506.5 309.667969 L 385.617188 309.667969 C 384.933594 309.667969 384.253906 309.734375 383.578125 309.871094 C 382.90625 310.003906 382.253906 310.203125 381.617188 310.464844 C 380.984375 310.726562 380.382812 311.050781 379.8125 311.429688 C 379.242188 311.8125 378.714844 312.246094 378.226562 312.730469 C 377.742188 313.214844 377.308594 313.742188 376.929688 314.3125 C 376.546875 314.882812 376.226562 315.488281 375.960938 316.121094 C 375.699219 316.753906 375.5 317.40625 375.367188 318.082031 C 375.234375 318.753906 375.167969 319.433594 375.167969 320.121094 C 375.167969 320.804688 375.234375 321.484375 375.367188 322.160156 C 375.5 322.832031 375.699219 323.484375 375.960938 324.121094 C 376.226562 324.753906 376.546875 325.355469 376.929688 325.925781 C 377.308594 326.496094 377.742188 327.023438 378.226562 327.511719 C 378.714844 327.996094 379.242188 328.429688 379.8125 328.808594 C 380.382812 329.191406 380.984375 329.511719 381.617188 329.773438 C 382.253906 330.039062 382.90625 330.234375 383.578125 330.371094 C 384.253906 330.503906 384.933594 330.570312 385.617188 330.570312 L 506.5 330.570312 C 507.183594 330.570312 507.863281 330.503906 508.539062 330.371094 C 509.210938 330.234375 509.863281 330.039062 510.496094 329.773438 C 511.132812 329.511719 511.734375 329.191406 512.304688 328.808594 C 512.875 328.429688 513.402344 327.996094 513.886719 327.511719 C 514.375 327.023438 514.808594 326.496094 515.1875 325.925781 C 515.570312 325.355469 515.890625 324.753906 516.152344 324.121094 C 516.417969 323.484375 516.613281 322.832031 516.75 322.160156 C 516.882812 321.484375 516.949219 320.804688 516.949219 320.121094 C 516.949219 319.433594 516.882812 318.753906 516.75 318.082031 C 516.613281 317.40625 516.417969 316.753906 516.152344 316.121094 C 515.890625 315.488281 515.570312 314.882812 515.1875 314.3125 C 514.808594 313.742188 514.375 313.214844 513.886719 312.730469 C 513.402344 312.246094 512.875 311.8125 512.304688 311.429688 C 511.734375 311.050781 511.132812 310.726562 510.496094 310.464844 C 509.863281 310.203125 509.210938 310.003906 508.539062 309.871094 C 507.863281 309.734375 507.183594 309.667969 506.5 309.667969 Z M 382.96875 481.828125 L 185.589844 481.828125 C 184.902344 481.828125 184.222656 481.894531 183.550781 482.027344 C 182.878906 482.164062 182.226562 482.359375 181.589844 482.625 C 180.957031 482.886719 180.355469 483.207031 179.785156 483.589844 C 179.214844 483.972656 178.6875 484.402344 178.199219 484.890625 C 177.714844 485.375 177.28125 485.902344 176.902344 486.472656 C 176.519531 487.042969 176.199219 487.644531 175.933594 488.28125 C 175.671875 488.914062 175.472656 489.566406 175.339844 490.242188 C 175.207031 490.914062 175.140625 491.59375 175.140625 492.277344 C 175.140625 492.964844 175.207031 493.644531 175.339844 494.316406 C 175.472656 494.992188 175.671875 495.644531 175.933594 496.277344 C 176.199219 496.914062 176.519531 497.515625 176.902344 498.085938 C 177.28125 498.65625 177.714844 499.183594 178.199219 499.667969 C 178.6875 500.152344 179.214844 500.585938 179.785156 500.96875 C 180.355469 501.351562 180.957031 501.671875 181.589844 501.933594 C 182.226562 502.195312 182.878906 502.394531 183.550781 502.527344 C 184.222656 502.664062 184.902344 502.730469 185.589844 502.730469 L 382.96875 502.730469 C 383.65625 502.730469 384.335938 502.664062 385.007812 502.527344 C 385.683594 502.394531 386.335938 502.195312 386.96875 501.933594 C 387.605469 501.671875 388.207031 501.351562 388.777344 500.96875 C 389.347656 500.585938 389.875 500.152344 390.359375 499.667969 C 390.84375 499.183594 391.277344 498.65625 391.660156 498.085938 C 392.042969 497.515625 392.363281 496.914062 392.625 496.277344 C 392.886719 495.644531 393.085938 494.992188 393.21875 494.316406 C 393.355469 493.644531 393.421875 492.964844 393.421875 492.277344 C 393.421875 491.59375 393.355469 490.914062 393.21875 490.238281 C 393.085938 489.566406 392.886719 488.914062 392.625 488.28125 C 392.363281 487.644531 392.042969 487.042969 391.660156 486.472656 C 391.277344 485.902344 390.84375 485.375 390.359375 484.890625 C 389.875 484.402344 389.347656 483.972656 388.777344 483.589844 C 388.207031 483.207031 387.605469 482.886719 386.96875 482.625 C 386.335938 482.359375 385.683594 482.164062 385.007812 482.027344 C 384.335938 481.894531 383.65625 481.828125 382.96875 481.828125 Z M 186.425781 446.714844 L 307.308594 446.714844 C 307.992188 446.714844 308.671875 446.648438 309.347656 446.511719 C 310.019531 446.378906 310.671875 446.179688 311.304688 445.917969 C 311.941406 445.65625 312.542969 445.332031 313.113281 444.953125 C 313.683594 444.570312 314.210938 444.136719 314.695312 443.652344 C 315.183594 443.167969 315.613281 442.640625 315.996094 442.070312 C 316.378906 441.5 316.699219 440.894531 316.960938 440.261719 C 317.226562 439.628906 317.421875 438.976562 317.558594 438.300781 C 317.691406 437.628906 317.757812 436.949219 317.757812 436.261719 C 317.757812 435.578125 317.691406 434.898438 317.558594 434.222656 C 317.421875 433.550781 317.226562 432.898438 316.960938 432.261719 C 316.699219 431.628906 316.378906 431.027344 315.996094 430.457031 C 315.613281 429.886719 315.183594 429.359375 314.695312 428.875 C 314.210938 428.386719 313.683594 427.953125 313.113281 427.574219 C 312.542969 427.191406 311.941406 426.871094 311.304688 426.609375 C 310.671875 426.34375 310.019531 426.148438 309.347656 426.011719 C 308.671875 425.878906 307.992188 425.8125 307.308594 425.8125 L 186.425781 425.8125 C 185.738281 425.8125 185.058594 425.878906 184.386719 426.011719 C 183.714844 426.148438 183.0625 426.34375 182.425781 426.609375 C 181.792969 426.871094 181.191406 427.191406 180.621094 427.574219 C 180.050781 427.953125 179.523438 428.386719 179.035156 428.875 C 178.550781 429.359375 178.117188 429.886719 177.738281 430.457031 C 177.355469 431.027344 177.035156 431.628906 176.769531 432.261719 C 176.507812 432.898438 176.308594 433.550781 176.175781 434.222656 C 176.042969 434.898438 175.976562 435.578125 175.976562 436.261719 C 175.976562 436.949219 176.042969 437.628906 176.175781 438.300781 C 176.308594 438.976562 176.507812 439.628906 176.769531 440.261719 C 177.035156 440.894531 177.355469 441.5 177.738281 442.070312 C 178.117188 442.640625 178.550781 443.167969 179.035156 443.652344 C 179.523438 444.136719 180.050781 444.570312 180.621094 444.953125 C 181.191406 445.332031 181.792969 445.65625 182.425781 445.917969 C 183.0625 446.179688 183.714844 446.378906 184.386719 446.511719 C 185.058594 446.648438 185.738281 446.714844 186.425781 446.714844 Z M 587.527344 181.207031 L 366.457031 181.207031 C 335.871094 189.289062 317.199219 207.824219 315.109375 241.472656 C 315.320312 247.953125 315.527344 254.433594 315.738281 260.84375 C 315.738281 272.6875 315.667969 283.695312 315.738281 294.773438 C 315.738281 311.84375 315.597656 328.980469 315.667969 346.050781 L 175.070312 346.050781 C 172.074219 346.679688 169.136719 347.507812 166.257812 348.542969 C 163.378906 349.578125 160.585938 350.808594 157.875 352.230469 C 155.167969 353.652344 152.570312 355.253906 150.082031 357.035156 C 147.597656 358.820312 145.246094 360.765625 143.027344 362.875 C 140.8125 364.984375 138.75 367.234375 136.847656 369.632812 C 134.941406 372.027344 133.214844 374.539062 131.65625 377.175781 C 130.101562 379.8125 128.738281 382.539062 127.5625 385.363281 C 126.386719 388.191406 125.410156 391.082031 124.632812 394.042969 L 124.632812 538.125 C 125.039062 541.816406 125.875 545.414062 127.132812 548.910156 C 128.394531 552.410156 130.046875 555.710938 132.089844 558.816406 C 135.050781 562.921875 138.535156 566.523438 142.542969 569.621094 C 146.550781 572.714844 150.914062 575.175781 155.636719 577 C 160.207031 579.191406 164.957031 580.859375 169.894531 582 C 174.832031 583.136719 179.832031 583.726562 184.902344 583.757812 L 200.996094 583.757812 L 200.996094 629.601562 C 201.414062 646.601562 201.902344 663.671875 202.320312 680.742188 C 210.539062 672.9375 217.578125 666.109375 223.082031 660.746094 C 240.359375 643.816406 248.789062 635.175781 259.242188 624.027344 C 268.089844 614.691406 268.507812 614.136719 272.6875 609.816406 C 291.777344 589.890625 296.792969 587.519531 299.371094 586.476562 C 304.582031 584.25 310.015625 583.253906 315.675781 583.480469 C 339.222656 584.386719 362.84375 583.898438 386.460938 583.757812 C 387.460938 583.800781 388.464844 583.816406 389.464844 583.808594 C 390.464844 583.800781 391.464844 583.765625 392.464844 583.703125 C 393.464844 583.640625 394.464844 583.554688 395.460938 583.441406 C 396.453125 583.328125 397.445312 583.191406 398.433594 583.027344 C 399.421875 582.863281 400.40625 582.671875 401.382812 582.457031 C 402.363281 582.242188 403.332031 582 404.300781 581.734375 C 405.265625 581.46875 406.222656 581.179688 407.175781 580.863281 C 408.125 580.546875 409.066406 580.207031 410 579.84375 C 410.933594 579.480469 411.855469 579.09375 412.769531 578.679688 C 413.679688 578.269531 414.582031 577.832031 415.472656 577.375 C 416.363281 576.914062 417.242188 576.433594 418.105469 575.929688 C 418.972656 575.421875 419.824219 574.898438 420.660156 574.347656 C 421.5 573.800781 422.324219 573.230469 423.132812 572.636719 C 423.941406 572.046875 424.734375 571.433594 425.507812 570.800781 C 426.285156 570.171875 427.046875 569.519531 427.789062 568.847656 C 428.53125 568.175781 429.257812 567.484375 429.964844 566.773438 C 430.671875 566.066406 431.359375 565.335938 432.027344 564.59375 C 432.695312 563.847656 433.347656 563.085938 433.976562 562.304688 C 434.605469 561.527344 435.214844 560.734375 435.804688 559.921875 C 436.390625 559.113281 436.960938 558.285156 437.503906 557.445312 C 438.050781 556.605469 438.574219 555.753906 439.078125 554.886719 C 439.578125 554.019531 440.054688 553.140625 440.511719 552.246094 C 440.96875 551.355469 441.402344 550.453125 441.808594 549.539062 C 442.21875 548.625 442.601562 547.699219 442.964844 546.765625 C 443.324219 545.832031 443.664062 544.886719 443.972656 543.9375 C 444.285156 542.984375 444.574219 542.023438 444.835938 541.058594 C 445.097656 540.09375 445.335938 539.121094 445.546875 538.140625 C 445.757812 537.160156 445.945312 536.175781 446.105469 535.1875 C 446.265625 534.199219 446.402344 533.207031 446.511719 532.210938 C 446.621094 531.21875 446.703125 530.21875 446.761719 529.21875 C 446.820312 528.21875 446.851562 527.21875 446.859375 526.214844 C 446.863281 525.214844 446.84375 524.214844 446.796875 523.214844 C 447.003906 502.03125 446.867188 480.785156 446.867188 459.601562 L 446.867188 425.757812 L 447.074219 418.648438 C 452.6875 418.429688 458.078125 419.429688 463.238281 421.644531 C 465.746094 422.691406 470.765625 424.988281 489.855469 444.984375 C 494.035156 449.304688 494.523438 449.863281 503.300781 459.199219 C 513.820312 470.347656 522.25 478.984375 539.53125 495.914062 C 544.964844 501.28125 552 508.109375 560.292969 515.910156 C 560.710938 498.84375 561.128906 481.796875 561.546875 464.773438 L 561.546875 418.929688 L 577.710938 418.929688 C 582.765625 418.890625 587.753906 418.300781 592.679688 417.164062 C 597.605469 416.023438 602.34375 414.359375 606.902344 412.171875 C 611.625 410.339844 615.988281 407.878906 619.996094 404.785156 C 624 401.691406 627.488281 398.089844 630.453125 393.984375 C 632.507812 390.871094 634.171875 387.558594 635.445312 384.050781 C 636.71875 380.542969 637.5625 376.933594 637.976562 373.222656 L 637.976562 229.199219 C 637.199219 226.238281 636.21875 223.347656 635.042969 220.523438 C 633.863281 217.699219 632.496094 214.972656 630.9375 212.339844 C 629.382812 209.703125 627.652344 207.191406 625.746094 204.796875 C 623.84375 202.402344 621.78125 200.148438 619.5625 198.042969 C 617.347656 195.933594 614.996094 193.988281 612.507812 192.203125 C 610.023438 190.421875 607.425781 188.816406 604.71875 187.394531 C 602.007812 185.972656 599.214844 184.742188 596.335938 183.707031 C 593.457031 182.671875 590.519531 181.835938 587.527344 181.207031 Z M 427.558594 523.226562 C 427.65625 524.601562 427.679688 525.980469 427.632812 527.359375 C 427.582031 528.738281 427.457031 530.109375 427.261719 531.476562 C 427.0625 532.839844 426.792969 534.191406 426.453125 535.527344 C 426.109375 536.863281 425.699219 538.179688 425.21875 539.472656 C 424.734375 540.765625 424.1875 542.027344 423.570312 543.261719 C 422.949219 544.492188 422.269531 545.691406 421.523438 546.851562 C 420.777344 548.011719 419.972656 549.128906 419.109375 550.207031 C 418.246094 551.28125 417.324219 552.304688 416.351562 553.28125 C 415.375 554.257812 414.351562 555.179688 413.277344 556.046875 C 412.207031 556.914062 411.089844 557.71875 409.929688 558.46875 C 408.769531 559.214844 407.574219 559.898438 406.339844 560.515625 C 405.109375 561.136719 403.847656 561.6875 402.554688 562.171875 C 401.261719 562.65625 399.949219 563.070312 398.613281 563.414062 C 397.277344 563.757812 395.925781 564.03125 394.5625 564.230469 C 393.195312 564.429688 391.824219 564.554688 390.445312 564.605469 C 389.066406 564.660156 387.691406 564.636719 386.316406 564.542969 C 359.074219 564.75 331.902344 564.890625 304.660156 564.402344 C 302.6875 564.296875 300.730469 564.414062 298.785156 564.75 C 296.84375 565.085938 294.960938 565.632812 293.136719 566.394531 C 291.316406 567.152344 289.601562 568.105469 287.996094 569.25 C 286.390625 570.398438 284.929688 571.707031 283.617188 573.183594 C 273.585938 583.492188 262.4375 592.757812 253.242188 603.835938 C 242.851562 616.320312 231.425781 627.773438 218.964844 638.1875 C 219.171875 632.75 219.9375 607.113281 220.285156 579.105469 C 220.515625 576.988281 220.316406 574.910156 219.683594 572.878906 C 219.054688 570.84375 218.046875 569.015625 216.664062 567.398438 C 215.160156 566.234375 213.492188 565.402344 211.65625 564.90625 C 209.820312 564.410156 207.957031 564.289062 206.074219 564.542969 C 198.898438 564.820312 191.652344 564.683594 184.476562 564.542969 C 183.121094 564.597656 181.769531 564.582031 180.417969 564.496094 C 179.070312 564.410156 177.726562 564.253906 176.390625 564.03125 C 175.054688 563.804688 173.734375 563.511719 172.429688 563.148438 C 171.128906 562.785156 169.84375 562.355469 168.585938 561.859375 C 167.324219 561.363281 166.09375 560.800781 164.894531 560.175781 C 163.691406 559.554688 162.527344 558.867188 161.398438 558.121094 C 160.265625 557.375 159.179688 556.574219 158.132812 555.714844 C 157.085938 554.855469 156.085938 553.945312 155.136719 552.980469 C 154.183594 552.019531 153.285156 551.007812 152.4375 549.953125 C 151.59375 548.894531 150.804688 547.796875 150.070312 546.660156 C 149.339844 545.519531 148.667969 544.347656 148.058594 543.136719 C 147.445312 541.929688 146.902344 540.691406 146.421875 539.425781 C 145.9375 538.160156 145.523438 536.875 145.175781 535.566406 C 144.832031 534.257812 144.550781 532.933594 144.34375 531.597656 C 144.132812 530.257812 143.992188 528.914062 143.925781 527.5625 C 143.855469 526.210938 143.855469 524.859375 143.925781 523.507812 C 143.71875 484.769531 143.71875 445.984375 143.925781 407.152344 C 143.847656 405.800781 143.835938 404.445312 143.898438 403.089844 C 143.957031 401.734375 144.089844 400.386719 144.289062 399.046875 C 144.492188 397.707031 144.761719 396.378906 145.097656 395.066406 C 145.4375 393.753906 145.84375 392.460938 146.320312 391.191406 C 146.792969 389.917969 147.332031 388.675781 147.933594 387.460938 C 148.535156 386.246094 149.199219 385.066406 149.925781 383.921875 C 150.652344 382.773438 151.433594 381.667969 152.277344 380.605469 C 153.117188 379.542969 154.011719 378.523438 154.957031 377.550781 C 155.902344 376.582031 156.898438 375.660156 157.941406 374.792969 C 158.984375 373.925781 160.066406 373.117188 161.195312 372.359375 C 162.320312 371.605469 163.484375 370.910156 164.683594 370.277344 C 165.882812 369.644531 167.109375 369.074219 168.367188 368.570312 C 169.625 368.0625 170.90625 367.625 172.210938 367.25 C 173.515625 366.878906 174.835938 366.574219 176.171875 366.339844 C 177.507812 366.105469 178.851562 365.9375 180.203125 365.84375 C 181.558594 365.75 182.910156 365.722656 184.265625 365.769531 C 228.230469 365.558594 272.191406 365.492188 316.15625 365.558594 C 316.324219 367.984375 316.648438 370.386719 317.125 372.769531 C 317.605469 375.152344 318.230469 377.496094 319.007812 379.800781 C 319.785156 382.101562 320.707031 384.347656 321.769531 386.53125 C 322.832031 388.714844 324.03125 390.824219 325.363281 392.855469 C 326.699219 394.890625 328.15625 396.828125 329.738281 398.671875 C 331.316406 400.519531 333.011719 402.257812 334.8125 403.886719 C 336.617188 405.515625 338.515625 407.023438 340.511719 408.410156 C 342.507812 409.796875 344.585938 411.050781 346.742188 412.171875 C 351.300781 414.425781 356.054688 416.125 361.011719 417.265625 C 365.96875 418.40625 370.988281 418.960938 376.074219 418.929688 C 383.875 419 391.679688 419.066406 399.484375 419.066406 C 408.820312 419.207031 418.222656 419.207031 427.558594 419.066406 C 427.769531 453.753906 427.769531 488.46875 427.558594 523.214844 Z M 618.671875 358.664062 C 618.738281 360.015625 618.738281 361.367188 618.667969 362.722656 C 618.597656 364.074219 618.457031 365.421875 618.242188 366.757812 C 618.03125 368.097656 617.753906 369.421875 617.402344 370.730469 C 617.054688 372.039062 616.636719 373.328125 616.15625 374.59375 C 615.671875 375.859375 615.125 377.09375 614.515625 378.304688 C 613.902344 379.511719 613.230469 380.6875 612.496094 381.824219 C 611.761719 382.964844 610.972656 384.0625 610.121094 385.121094 C 609.273438 386.175781 608.375 387.1875 607.421875 388.148438 C 606.46875 389.113281 605.46875 390.023438 604.417969 390.882812 C 603.371094 391.738281 602.28125 392.542969 601.152344 393.289062 C 600.019531 394.03125 598.851562 394.71875 597.648438 395.339844 C 596.445312 395.964844 595.214844 396.527344 593.953125 397.023438 C 592.695312 397.515625 591.410156 397.945312 590.105469 398.308594 C 588.800781 398.671875 587.480469 398.964844 586.144531 399.191406 C 584.808594 399.414062 583.460938 399.570312 582.109375 399.65625 C 580.757812 399.738281 579.40625 399.753906 578.050781 399.699219 C 570.875 399.839844 563.628906 399.976562 556.453125 399.699219 C 554.578125 399.429688 552.726562 399.542969 550.898438 400.039062 C 549.070312 400.535156 547.414062 401.375 545.933594 402.554688 C 544.539062 404.171875 543.523438 405.996094 542.882812 408.027344 C 542.242188 410.0625 542.027344 412.140625 542.242188 414.261719 C 542.589844 442.269531 543.425781 467.839844 543.5625 473.34375 C 531.117188 462.910156 519.691406 451.460938 509.285156 438.992188 C 500.160156 427.917969 488.941406 418.648438 478.976562 408.339844 C 477.660156 406.859375 476.199219 405.546875 474.585938 404.398438 C 472.972656 403.253906 471.253906 402.296875 469.425781 401.539062 C 467.597656 400.777344 465.707031 400.230469 463.757812 399.898438 C 461.808594 399.5625 459.84375 399.453125 457.867188 399.558594 C 454.175781 399.628906 450.484375 399.699219 446.789062 399.699219 C 440.171875 399.769531 433.621094 399.839844 427.003906 399.839844 C 410.074219 399.90625 393.140625 399.769531 376.210938 399.699219 C 353.5 399.488281 338.3125 386.671875 335.523438 365.558594 C 335.15625 363.183594 334.972656 360.789062 334.964844 358.382812 L 334.964844 346.050781 C 334.828125 311.355469 334.757812 276.660156 334.964844 241.960938 C 334.878906 240.609375 334.867188 239.253906 334.921875 237.898438 C 334.980469 236.542969 335.109375 235.191406 335.308594 233.851562 C 335.507812 232.507812 335.773438 231.179688 336.113281 229.867188 C 336.453125 228.550781 336.859375 227.257812 337.335938 225.988281 C 337.808594 224.71875 338.351562 223.472656 338.957031 222.261719 C 339.5625 221.046875 340.230469 219.867188 340.960938 218.722656 C 341.691406 217.578125 342.476562 216.476562 343.324219 215.417969 C 344.167969 214.355469 345.070312 213.339844 346.023438 212.375 C 346.976562 211.410156 347.976562 210.496094 349.023438 209.636719 C 350.074219 208.773438 351.164062 207.972656 352.300781 207.226562 C 353.433594 206.480469 354.601562 205.796875 355.808594 205.171875 C 357.015625 204.550781 358.25 203.992188 359.511719 203.5 C 360.777344 203.007812 362.0625 202.582031 363.375 202.226562 C 364.683594 201.871094 366.007812 201.582031 367.347656 201.363281 C 368.6875 201.148438 370.03125 201 371.386719 200.925781 C 372.742188 200.847656 374.097656 200.84375 375.453125 200.910156 C 443.035156 200.5625 510.664062 200.5625 578.335938 200.910156 C 579.691406 200.867188 581.046875 200.890625 582.398438 200.984375 C 583.753906 201.082031 585.097656 201.246094 586.433594 201.480469 C 587.769531 201.71875 589.085938 202.019531 590.390625 202.394531 C 591.695312 202.765625 592.976562 203.207031 594.234375 203.710938 C 595.492188 204.21875 596.722656 204.785156 597.921875 205.421875 C 599.121094 206.054688 600.28125 206.75 601.410156 207.503906 C 602.535156 208.257812 603.621094 209.070312 604.664062 209.9375 C 605.707031 210.804688 606.699219 211.722656 607.648438 212.695312 C 608.59375 213.667969 609.488281 214.683594 610.328125 215.75 C 611.167969 216.8125 611.953125 217.917969 612.675781 219.0625 C 613.402344 220.207031 614.066406 221.390625 614.671875 222.605469 C 615.273438 223.820312 615.8125 225.0625 616.285156 226.332031 C 616.757812 227.601562 617.164062 228.894531 617.503906 230.207031 C 617.84375 231.519531 618.113281 232.847656 618.3125 234.191406 C 618.515625 235.53125 618.644531 236.878906 618.707031 238.234375 C 618.765625 239.589844 618.757812 240.941406 618.675781 242.296875 C 618.882812 281.105469 618.878906 319.886719 618.671875 358.648438 Z M 577.007812 254.292969 L 379.554688 254.292969 C 378.871094 254.292969 378.191406 254.359375 377.519531 254.496094 C 376.84375 254.628906 376.191406 254.828125 375.558594 255.089844 C 374.921875 255.351562 374.320312 255.675781 373.75 256.054688 C 373.179688 256.4375 372.652344 256.871094 372.167969 257.355469 C 371.679688 257.839844 371.25 258.367188 370.867188 258.9375 C 370.484375 259.507812 370.164062 260.113281 369.902344 260.746094 C 369.640625 261.378906 369.441406 262.03125 369.304688 262.707031 C 369.171875 263.378906 369.105469 264.058594 369.105469 264.746094 C 369.105469 265.429688 369.171875 266.109375 369.304688 266.785156 C 369.441406 267.457031 369.636719 268.109375 369.902344 268.746094 C 370.164062 269.378906 370.484375 269.980469 370.867188 270.550781 C 371.25 271.121094 371.679688 271.648438 372.167969 272.132812 C 372.652344 272.621094 373.179688 273.054688 373.75 273.433594 C 374.320312 273.816406 374.921875 274.136719 375.558594 274.398438 C 376.191406 274.664062 376.84375 274.859375 377.519531 274.996094 C 378.191406 275.128906 378.871094 275.195312 379.554688 275.195312 L 577.007812 275.195312 C 577.691406 275.195312 578.371094 275.128906 579.046875 274.992188 C 579.71875 274.859375 580.371094 274.660156 581.007812 274.398438 C 581.640625 274.132812 582.242188 273.8125 582.8125 273.429688 C 583.382812 273.050781 583.910156 272.617188 584.398438 272.128906 C 584.882812 271.644531 585.316406 271.117188 585.695312 270.546875 C 586.078125 269.976562 586.398438 269.371094 586.660156 268.738281 C 586.925781 268.105469 587.121094 267.449219 587.257812 266.777344 C 587.390625 266.105469 587.457031 265.425781 587.457031 264.738281 C 587.457031 264.050781 587.390625 263.371094 587.257812 262.699219 C 587.121094 262.027344 586.925781 261.371094 586.660156 260.738281 C 586.398438 260.101562 586.078125 259.5 585.695312 258.929688 C 585.316406 258.359375 584.882812 257.832031 584.398438 257.347656 C 583.910156 256.859375 583.382812 256.425781 582.8125 256.046875 C 582.242188 255.664062 581.640625 255.339844 581.007812 255.078125 C 580.371094 254.816406 579.71875 254.617188 579.046875 254.480469 C 578.371094 254.347656 577.691406 254.28125 577.007812 254.28125 Z M 506.5 309.683594 L 385.617188 309.683594 C 384.933594 309.683594 384.253906 309.75 383.578125 309.882812 C 382.90625 310.019531 382.253906 310.214844 381.617188 310.480469 C 380.984375 310.742188 380.382812 311.0625 379.8125 311.445312 C 379.242188 311.824219 378.714844 312.257812 378.226562 312.746094 C 377.742188 313.230469 377.308594 313.757812 376.929688 314.328125 C 376.546875 314.898438 376.226562 315.5 375.960938 316.132812 C 375.699219 316.769531 375.5 317.421875 375.367188 318.09375 C 375.234375 318.769531 375.167969 319.449219 375.167969 320.132812 C 375.167969 320.820312 375.234375 321.5 375.367188 322.171875 C 375.5 322.847656 375.699219 323.5 375.960938 324.132812 C 376.226562 324.765625 376.546875 325.371094 376.929688 325.941406 C 377.308594 326.511719 377.742188 327.039062 378.226562 327.523438 C 378.714844 328.007812 379.242188 328.441406 379.8125 328.824219 C 380.382812 329.203125 380.984375 329.527344 381.617188 329.789062 C 382.253906 330.050781 382.90625 330.25 383.578125 330.382812 C 384.253906 330.519531 384.933594 330.585938 385.617188 330.585938 L 506.5 330.585938 C 507.183594 330.585938 507.867188 330.519531 508.539062 330.382812 C 509.210938 330.25 509.867188 330.050781 510.5 329.789062 C 511.136719 329.527344 511.738281 329.203125 512.308594 328.824219 C 512.878906 328.441406 513.40625 328.007812 513.894531 327.523438 C 514.378906 327.035156 514.8125 326.507812 515.195312 325.9375 C 515.574219 325.367188 515.898438 324.761719 516.160156 324.128906 C 516.421875 323.496094 516.621094 322.839844 516.753906 322.167969 C 516.890625 321.492188 516.957031 320.8125 516.957031 320.128906 C 516.957031 319.441406 516.890625 318.761719 516.753906 318.085938 C 516.621094 317.414062 516.421875 316.757812 516.160156 316.125 C 515.898438 315.492188 515.574219 314.886719 515.195312 314.316406 C 514.8125 313.746094 514.378906 313.21875 513.894531 312.730469 C 513.40625 312.246094 512.878906 311.8125 512.308594 311.433594 C 511.738281 311.050781 511.136719 310.726562 510.5 310.464844 C 509.867188 310.203125 509.210938 310.003906 508.539062 309.871094 C 507.867188 309.734375 507.183594 309.667969 506.5 309.667969 Z M 382.96875 481.84375 L 185.589844 481.84375 C 184.902344 481.84375 184.222656 481.910156 183.550781 482.042969 C 182.878906 482.175781 182.226562 482.375 181.589844 482.636719 C 180.957031 482.898438 180.355469 483.222656 179.785156 483.601562 C 179.214844 483.984375 178.6875 484.417969 178.199219 484.902344 C 177.714844 485.386719 177.28125 485.917969 176.902344 486.488281 C 176.519531 487.058594 176.199219 487.660156 175.933594 488.292969 C 175.671875 488.925781 175.472656 489.582031 175.339844 490.253906 C 175.207031 490.925781 175.140625 491.605469 175.140625 492.292969 C 175.140625 492.980469 175.207031 493.660156 175.339844 494.332031 C 175.472656 495.003906 175.671875 495.660156 175.933594 496.292969 C 176.199219 496.925781 176.519531 497.527344 176.902344 498.097656 C 177.28125 498.667969 177.714844 499.199219 178.199219 499.683594 C 178.6875 500.167969 179.214844 500.601562 179.785156 500.984375 C 180.355469 501.363281 180.957031 501.6875 181.589844 501.949219 C 182.226562 502.210938 182.878906 502.410156 183.550781 502.542969 C 184.222656 502.675781 184.902344 502.742188 185.589844 502.742188 L 382.96875 502.742188 C 383.65625 502.742188 384.335938 502.675781 385.011719 502.542969 C 385.683594 502.410156 386.339844 502.210938 386.972656 501.949219 C 387.605469 501.683594 388.210938 501.363281 388.78125 500.980469 C 389.351562 500.601562 389.878906 500.167969 390.363281 499.679688 C 390.851562 499.195312 391.285156 498.667969 391.664062 498.097656 C 392.046875 497.523438 392.371094 496.921875 392.632812 496.289062 C 392.894531 495.652344 393.09375 495 393.226562 494.324219 C 393.359375 493.652344 393.429688 492.972656 393.429688 492.285156 C 393.429688 491.597656 393.359375 490.917969 393.226562 490.246094 C 393.09375 489.574219 392.894531 488.917969 392.632812 488.285156 C 392.371094 487.648438 392.046875 487.046875 391.664062 486.476562 C 391.285156 485.90625 390.851562 485.375 390.363281 484.890625 C 389.878906 484.40625 389.351562 483.972656 388.78125 483.589844 C 388.210938 483.210938 387.605469 482.886719 386.972656 482.625 C 386.339844 482.363281 385.683594 482.164062 385.011719 482.027344 C 384.335938 481.894531 383.65625 481.828125 382.96875 481.828125 Z M 186.425781 446.726562 L 307.308594 446.726562 C 307.992188 446.726562 308.671875 446.660156 309.347656 446.527344 C 310.019531 446.394531 310.671875 446.195312 311.304688 445.933594 C 311.941406 445.667969 312.542969 445.347656 313.113281 444.964844 C 313.683594 444.585938 314.210938 444.152344 314.695312 443.667969 C 315.183594 443.179688 315.613281 442.652344 315.996094 442.082031 C 316.378906 441.511719 316.699219 440.910156 316.960938 440.277344 C 317.226562 439.640625 317.421875 438.988281 317.558594 438.316406 C 317.691406 437.644531 317.757812 436.964844 317.757812 436.277344 C 317.757812 435.589844 317.691406 434.910156 317.558594 434.238281 C 317.421875 433.566406 317.226562 432.910156 316.960938 432.277344 C 316.699219 431.644531 316.378906 431.042969 315.996094 430.472656 C 315.613281 429.898438 315.183594 429.371094 314.695312 428.886719 C 314.210938 428.402344 313.683594 427.96875 313.113281 427.585938 C 312.542969 427.207031 311.941406 426.882812 311.304688 426.621094 C 310.671875 426.359375 310.019531 426.160156 309.347656 426.027344 C 308.671875 425.894531 307.992188 425.824219 307.308594 425.824219 L 186.425781 425.824219 C 185.757812 425.851562 185.09375 425.9375 184.441406 426.089844 C 183.789062 426.242188 183.15625 426.453125 182.546875 426.726562 C 181.933594 427 181.351562 427.332031 180.804688 427.714844 C 180.257812 428.101562 179.75 428.535156 179.285156 429.015625 C 178.820312 429.5 178.402344 430.019531 178.039062 430.582031 C 177.675781 431.144531 177.367188 431.738281 177.117188 432.359375 C 176.867188 432.980469 176.675781 433.621094 176.546875 434.277344 C 176.421875 434.9375 176.355469 435.601562 176.355469 436.269531 C 176.355469 436.941406 176.421875 437.605469 176.546875 438.261719 C 176.675781 438.917969 176.867188 439.558594 177.117188 440.179688 C 177.367188 440.800781 177.675781 441.394531 178.039062 441.957031 C 178.402344 442.519531 178.820312 443.042969 179.285156 443.523438 C 179.75 444.007812 180.257812 444.441406 180.804688 444.824219 C 181.351562 445.210938 181.933594 445.539062 182.546875 445.8125 C 183.15625 446.085938 183.789062 446.296875 184.441406 446.449219 C 185.09375 446.601562 185.757812 446.6875 186.425781 446.714844 Z M 307.308594 425.824219 L 186.425781 425.824219 C 185.738281 425.824219 185.058594 425.894531 184.386719 426.027344 C 183.714844 426.160156 183.0625 426.359375 182.425781 426.621094 C 181.792969 426.882812 181.191406 427.207031 180.621094 427.585938 C 180.050781 427.96875 179.523438 428.402344 179.035156 428.886719 C 178.550781 429.371094 178.117188 429.898438 177.738281 430.472656 C 177.355469 431.042969 177.035156 431.644531 176.769531 432.277344 C 176.507812 432.910156 176.308594 433.566406 176.175781 434.238281 C 176.042969 434.910156 175.976562 435.589844 175.976562 436.277344 C 175.976562 436.964844 176.042969 437.644531 176.175781 438.316406 C 176.308594 438.988281 176.507812 439.640625 176.769531 440.277344 C 177.035156 440.910156 177.355469 441.511719 177.738281 442.082031 C 178.117188 442.652344 178.550781 443.179688 179.035156 443.667969 C 179.523438 444.152344 180.050781 444.585938 180.621094 444.964844 C 181.191406 445.347656 181.792969 445.667969 182.425781 445.933594 C 183.0625 446.195312 183.714844 446.394531 184.386719 446.527344 C 185.058594 446.660156 185.738281 446.726562 186.425781 446.726562 L 307.308594 446.726562 C 307.992188 446.726562 308.671875 446.660156 309.347656 446.527344 C 310.019531 446.394531 310.675781 446.195312 311.308594 445.929688 C 311.941406 445.667969 312.546875 445.347656 313.117188 444.964844 C 313.6875 444.582031 314.214844 444.148438 314.703125 443.664062 C 315.1875 443.179688 315.621094 442.652344 316.003906 442.078125 C 316.382812 441.507812 316.707031 440.90625 316.96875 440.273438 C 317.230469 439.636719 317.429688 438.984375 317.5625 438.308594 C 317.699219 437.636719 317.765625 436.957031 317.765625 436.269531 C 317.765625 435.582031 317.699219 434.902344 317.5625 434.230469 C 317.429688 433.554688 317.230469 432.902344 316.96875 432.269531 C 316.707031 431.632812 316.382812 431.03125 316.003906 430.460938 C 315.621094 429.890625 315.1875 429.359375 314.703125 428.875 C 314.214844 428.390625 313.6875 427.957031 313.117188 427.574219 C 312.546875 427.191406 311.941406 426.871094 311.308594 426.609375 C 310.675781 426.34375 310.019531 426.148438 309.347656 426.011719 C 308.671875 425.878906 307.992188 425.8125 307.308594 425.8125 Z M 382.96875 481.84375 L 185.589844 481.84375 C 184.902344 481.84375 184.222656 481.910156 183.550781 482.042969 C 182.878906 482.175781 182.226562 482.375 181.589844 482.636719 C 180.957031 482.898438 180.355469 483.222656 179.785156 483.601562 C 179.214844 483.984375 178.6875 484.417969 178.199219 484.902344 C 177.714844 485.386719 177.28125 485.917969 176.902344 486.488281 C 176.519531 487.058594 176.199219 487.660156 175.933594 488.292969 C 175.671875 488.925781 175.472656 489.582031 175.339844 490.253906 C 175.207031 490.925781 175.140625 491.605469 175.140625 492.292969 C 175.140625 492.980469 175.207031 493.660156 175.339844 494.332031 C 175.472656 495.003906 175.671875 495.660156 175.933594 496.292969 C 176.199219 496.925781 176.519531 497.527344 176.902344 498.097656 C 177.28125 498.667969 177.714844 499.199219 178.199219 499.683594 C 178.6875 500.167969 179.214844 500.601562 179.785156 500.984375 C 180.355469 501.363281 180.957031 501.6875 181.589844 501.949219 C 182.226562 502.210938 182.878906 502.410156 183.550781 502.542969 C 184.222656 502.675781 184.902344 502.742188 185.589844 502.742188 L 382.96875 502.742188 C 383.65625 502.742188 384.335938 502.675781 385.011719 502.542969 C 385.683594 502.410156 386.339844 502.210938 386.972656 501.949219 C 387.605469 501.683594 388.210938 501.363281 388.78125 500.980469 C 389.351562 500.601562 389.878906 500.167969 390.363281 499.679688 C 390.851562 499.195312 391.285156 498.667969 391.664062 498.097656 C 392.046875 497.523438 392.371094 496.921875 392.632812 496.289062 C 392.894531 495.652344 393.09375 495 393.226562 494.324219 C 393.359375 493.652344 393.429688 492.972656 393.429688 492.285156 C 393.429688 491.597656 393.359375 490.917969 393.226562 490.246094 C 393.09375 489.574219 392.894531 488.917969 392.632812 488.285156 C 392.371094 487.648438 392.046875 487.046875 391.664062 486.476562 C 391.285156 485.90625 390.851562 485.375 390.363281 484.890625 C 389.878906 484.40625 389.351562 483.972656 388.78125 483.589844 C 388.210938 483.210938 387.605469 482.886719 386.972656 482.625 C 386.339844 482.363281 385.683594 482.164062 385.011719 482.027344 C 384.335938 481.894531 383.65625 481.828125 382.96875 481.828125 Z M 506.5 309.683594 L 385.617188 309.683594 C 384.933594 309.683594 384.253906 309.75 383.578125 309.882812 C 382.90625 310.019531 382.253906 310.214844 381.617188 310.480469 C 380.984375 310.742188 380.382812 311.0625 379.8125 311.445312 C 379.242188 311.824219 378.714844 312.257812 378.226562 312.746094 C 377.742188 313.230469 377.308594 313.757812 376.929688 314.328125 C 376.546875 314.898438 376.226562 315.5 375.960938 316.132812 C 375.699219 316.769531 375.5 317.421875 375.367188 318.09375 C 375.234375 318.769531 375.167969 319.449219 375.167969 320.132812 C 375.167969 320.820312 375.234375 321.5 375.367188 322.171875 C 375.5 322.847656 375.699219 323.5 375.960938 324.132812 C 376.226562 324.765625 376.546875 325.371094 376.929688 325.941406 C 377.308594 326.511719 377.742188 327.039062 378.226562 327.523438 C 378.714844 328.007812 379.242188 328.441406 379.8125 328.824219 C 380.382812 329.203125 380.984375 329.527344 381.617188 329.789062 C 382.253906 330.050781 382.90625 330.25 383.578125 330.382812 C 384.253906 330.519531 384.933594 330.585938 385.617188 330.585938 L 506.5 330.585938 C 507.183594 330.585938 507.867188 330.519531 508.539062 330.382812 C 509.210938 330.25 509.867188 330.050781 510.5 329.789062 C 511.136719 329.527344 511.738281 329.203125 512.308594 328.824219 C 512.878906 328.441406 513.40625 328.007812 513.894531 327.523438 C 514.378906 327.035156 514.8125 326.507812 515.195312 325.9375 C 515.574219 325.367188 515.898438 324.761719 516.160156 324.128906 C 516.421875 323.496094 516.621094 322.839844 516.753906 322.167969 C 516.890625 321.492188 516.957031 320.8125 516.957031 320.128906 C 516.957031 319.441406 516.890625 318.761719 516.753906 318.085938 C 516.621094 317.414062 516.421875 316.757812 516.160156 316.125 C 515.898438 315.492188 515.574219 314.886719 515.195312 314.316406 C 514.8125 313.746094 514.378906 313.21875 513.894531 312.730469 C 513.40625 312.246094 512.878906 311.8125 512.308594 311.433594 C 511.738281 311.050781 511.136719 310.726562 510.5 310.464844 C 509.867188 310.203125 509.210938 310.003906 508.539062 309.871094 C 507.867188 309.734375 507.183594 309.667969 506.5 309.667969 Z M 577.007812 254.292969 L 379.554688 254.292969 C 378.871094 254.292969 378.191406 254.359375 377.519531 254.496094 C 376.84375 254.628906 376.191406 254.828125 375.558594 255.089844 C 374.921875 255.351562 374.320312 255.675781 373.75 256.054688 C 373.179688 256.4375 372.652344 256.871094 372.167969 257.355469 C 371.679688 257.839844 371.25 258.367188 370.867188 258.9375 C 370.484375 259.507812 370.164062 260.113281 369.902344 260.746094 C 369.640625 261.378906 369.441406 262.03125 369.304688 262.707031 C 369.171875 263.378906 369.105469 264.058594 369.105469 264.746094 C 369.105469 265.429688 369.171875 266.109375 369.304688 266.785156 C 369.441406 267.457031 369.636719 268.109375 369.902344 268.746094 C 370.164062 269.378906 370.484375 269.980469 370.867188 270.550781 C 371.25 271.121094 371.679688 271.648438 372.167969 272.132812 C 372.652344 272.621094 373.179688 273.054688 373.75 273.433594 C 374.320312 273.816406 374.921875 274.136719 375.558594 274.398438 C 376.191406 274.664062 376.84375 274.859375 377.519531 274.996094 C 378.191406 275.128906 378.871094 275.195312 379.554688 275.195312 L 577.007812 275.195312 C 577.691406 275.195312 578.371094 275.128906 579.046875 274.992188 C 579.71875 274.859375 580.371094 274.660156 581.007812 274.398438 C 581.640625 274.132812 582.242188 273.8125 582.8125 273.429688 C 583.382812 273.050781 583.910156 272.617188 584.398438 272.128906 C 584.882812 271.644531 585.316406 271.117188 585.695312 270.546875 C 586.078125 269.976562 586.398438 269.371094 586.660156 268.738281 C 586.925781 268.105469 587.121094 267.449219 587.257812 266.777344 C 587.390625 266.105469 587.457031 265.425781 587.457031 264.738281 C 587.457031 264.050781 587.390625 263.371094 587.257812 262.699219 C 587.121094 262.027344 586.925781 261.371094 586.660156 260.738281 C 586.398438 260.101562 586.078125 259.5 585.695312 258.929688 C 585.316406 258.359375 584.882812 257.832031 584.398438 257.347656 C 583.910156 256.859375 583.382812 256.425781 582.8125 256.046875 C 582.242188 255.664062 581.640625 255.339844 581.007812 255.078125 C 580.371094 254.816406 579.71875 254.617188 579.046875 254.480469 C 578.371094 254.347656 577.691406 254.28125 577.007812 254.28125 Z M 577.007812 254.292969 L 379.554688 254.292969 C 378.871094 254.292969 378.191406 254.359375 377.519531 254.496094 C 376.84375 254.628906 376.191406 254.828125 375.558594 255.089844 C 374.921875 255.351562 374.320312 255.675781 373.75 256.054688 C 373.179688 256.4375 372.652344 256.871094 372.167969 257.355469 C 371.679688 257.839844 371.25 258.367188 370.867188 258.9375 C 370.484375 259.507812 370.164062 260.113281 369.902344 260.746094 C 369.640625 261.378906 369.441406 262.03125 369.304688 262.707031 C 369.171875 263.378906 369.105469 264.058594 369.105469 264.746094 C 369.105469 265.429688 369.171875 266.109375 369.304688 266.785156 C 369.441406 267.457031 369.636719 268.109375 369.902344 268.746094 C 370.164062 269.378906 370.484375 269.980469 370.867188 270.550781 C 371.25 271.121094 371.679688 271.648438 372.167969 272.132812 C 372.652344 272.621094 373.179688 273.054688 373.75 273.433594 C 374.320312 273.816406 374.921875 274.136719 375.558594 274.398438 C 376.191406 274.664062 376.84375 274.859375 377.519531 274.996094 C 378.191406 275.128906 378.871094 275.195312 379.554688 275.195312 L 577.007812 275.195312 C 577.691406 275.195312 578.371094 275.128906 579.046875 274.992188 C 579.71875 274.859375 580.371094 274.660156 581.007812 274.398438 C 581.640625 274.132812 582.242188 273.8125 582.8125 273.429688 C 583.382812 273.050781 583.910156 272.617188 584.398438 272.128906 C 584.882812 271.644531 585.316406 271.117188 585.695312 270.546875 C 586.078125 269.976562 586.398438 269.371094 586.660156 268.738281 C 586.925781 268.105469 587.121094 267.449219 587.257812 266.777344 C 587.390625 266.105469 587.457031 265.425781 587.457031 264.738281 C 587.457031 264.050781 587.390625 263.371094 587.257812 262.699219 C 587.121094 262.027344 586.925781 261.371094 586.660156 260.738281 C 586.398438 260.101562 586.078125 259.5 585.695312 258.929688 C 585.316406 258.359375 584.882812 257.832031 584.398438 257.347656 C 583.910156 256.859375 583.382812 256.425781 582.8125 256.046875 C 582.242188 255.664062 581.640625 255.339844 581.007812 255.078125 C 580.371094 254.816406 579.71875 254.617188 579.046875 254.480469 C 578.371094 254.347656 577.691406 254.28125 577.007812 254.28125 Z M 506.5 309.683594 L 385.617188 309.683594 C 384.933594 309.683594 384.253906 309.75 383.578125 309.882812 C 382.90625 310.019531 382.253906 310.214844 381.617188 310.480469 C 380.984375 310.742188 380.382812 311.0625 379.8125 311.445312 C 379.242188 311.824219 378.714844 312.257812 378.226562 312.746094 C 377.742188 313.230469 377.308594 313.757812 376.929688 314.328125 C 376.546875 314.898438 376.226562 315.5 375.960938 316.132812 C 375.699219 316.769531 375.5 317.421875 375.367188 318.09375 C 375.234375 318.769531 375.167969 319.449219 375.167969 320.132812 C 375.167969 320.820312 375.234375 321.5 375.367188 322.171875 C 375.5 322.847656 375.699219 323.5 375.960938 324.132812 C 376.226562 324.765625 376.546875 325.371094 376.929688 325.941406 C 377.308594 326.511719 377.742188 327.039062 378.226562 327.523438 C 378.714844 328.007812 379.242188 328.441406 379.8125 328.824219 C 380.382812 329.203125 380.984375 329.527344 381.617188 329.789062 C 382.253906 330.050781 382.90625 330.25 383.578125 330.382812 C 384.253906 330.519531 384.933594 330.585938 385.617188 330.585938 L 506.5 330.585938 C 507.183594 330.585938 507.867188 330.519531 508.539062 330.382812 C 509.210938 330.25 509.867188 330.050781 510.5 329.789062 C 511.136719 329.527344 511.738281 329.203125 512.308594 328.824219 C 512.878906 328.441406 513.40625 328.007812 513.894531 327.523438 C 514.378906 327.035156 514.8125 326.507812 515.195312 325.9375 C 515.574219 325.367188 515.898438 324.761719 516.160156 324.128906 C 516.421875 323.496094 516.621094 322.839844 516.753906 322.167969 C 516.890625 321.492188 516.957031 320.8125 516.957031 320.128906 C 516.957031 319.441406 516.890625 318.761719 516.753906 318.085938 C 516.621094 317.414062 516.421875 316.757812 516.160156 316.125 C 515.898438 315.492188 515.574219 314.886719 515.195312 314.316406 C 514.8125 313.746094 514.378906 313.21875 513.894531 312.730469 C 513.40625 312.246094 512.878906 311.8125 512.308594 311.433594 C 511.738281 311.050781 511.136719 310.726562 510.5 310.464844 C 509.867188 310.203125 509.210938 310.003906 508.539062 309.871094 C 507.867188 309.734375 507.183594 309.667969 506.5 309.667969 Z M 382.96875 481.84375 L 185.589844 481.84375 C 184.902344 481.84375 184.222656 481.910156 183.550781 482.042969 C 182.878906 482.175781 182.226562 482.375 181.589844 482.636719 C 180.957031 482.898438 180.355469 483.222656 179.785156 483.601562 C 179.214844 483.984375 178.6875 484.417969 178.199219 484.902344 C 177.714844 485.386719 177.28125 485.917969 176.902344 486.488281 C 176.519531 487.058594 176.199219 487.660156 175.933594 488.292969 C 175.671875 488.925781 175.472656 489.582031 175.339844 490.253906 C 175.207031 490.925781 175.140625 491.605469 175.140625 492.292969 C 175.140625 492.980469 175.207031 493.660156 175.339844 494.332031 C 175.472656 495.003906 175.671875 495.660156 175.933594 496.292969 C 176.199219 496.925781 176.519531 497.527344 176.902344 498.097656 C 177.28125 498.667969 177.714844 499.199219 178.199219 499.683594 C 178.6875 500.167969 179.214844 500.601562 179.785156 500.984375 C 180.355469 501.363281 180.957031 501.6875 181.589844 501.949219 C 182.226562 502.210938 182.878906 502.410156 183.550781 502.542969 C 184.222656 502.675781 184.902344 502.742188 185.589844 502.742188 L 382.96875 502.742188 C 383.65625 502.742188 384.335938 502.675781 385.011719 502.542969 C 385.683594 502.410156 386.339844 502.210938 386.972656 501.949219 C 387.605469 501.683594 388.210938 501.363281 388.78125 500.980469 C 389.351562 500.601562 389.878906 500.167969 390.363281 499.679688 C 390.851562 499.195312 391.285156 498.667969 391.664062 498.097656 C 392.046875 497.523438 392.371094 496.921875 392.632812 496.289062 C 392.894531 495.652344 393.09375 495 393.226562 494.324219 C 393.359375 493.652344 393.429688 492.972656 393.429688 492.285156 C 393.429688 491.597656 393.359375 490.917969 393.226562 490.246094 C 393.09375 489.574219 392.894531 488.917969 392.632812 488.285156 C 392.371094 487.648438 392.046875 487.046875 391.664062 486.476562 C 391.285156 485.90625 390.851562 485.375 390.363281 484.890625 C 389.878906 484.40625 389.351562 483.972656 388.78125 483.589844 C 388.210938 483.210938 387.605469 482.886719 386.972656 482.625 C 386.339844 482.363281 385.683594 482.164062 385.011719 482.027344 C 384.335938 481.894531 383.65625 481.828125 382.96875 481.828125 Z M 307.308594 425.824219 L 186.425781 425.824219 C 185.738281 425.824219 185.058594 425.894531 184.386719 426.027344 C 183.714844 426.160156 183.0625 426.359375 182.425781 426.621094 C 181.792969 426.882812 181.191406 427.207031 180.621094 427.585938 C 180.050781 427.96875 179.523438 428.402344 179.035156 428.886719 C 178.550781 429.371094 178.117188 429.898438 177.738281 430.472656 C 177.355469 431.042969 177.035156 431.644531 176.769531 432.277344 C 176.507812 432.910156 176.308594 433.566406 176.175781 434.238281 C 176.042969 434.910156 175.976562 435.589844 175.976562 436.277344 C 175.976562 436.964844 176.042969 437.644531 176.175781 438.316406 C 176.308594 438.988281 176.507812 439.640625 176.769531 440.277344 C 177.035156 440.910156 177.355469 441.511719 177.738281 442.082031 C 178.117188 442.652344 178.550781 443.179688 179.035156 443.667969 C 179.523438 444.152344 180.050781 444.585938 180.621094 444.964844 C 181.191406 445.347656 181.792969 445.667969 182.425781 445.933594 C 183.0625 446.195312 183.714844 446.394531 184.386719 446.527344 C 185.058594 446.660156 185.738281 446.726562 186.425781 446.726562 L 307.308594 446.726562 C 307.992188 446.726562 308.671875 446.660156 309.347656 446.527344 C 310.019531 446.394531 310.675781 446.195312 311.308594 445.929688 C 311.941406 445.667969 312.546875 445.347656 313.117188 444.964844 C 313.6875 444.582031 314.214844 444.148438 314.703125 443.664062 C 315.1875 443.179688 315.621094 442.652344 316.003906 442.078125 C 316.382812 441.507812 316.707031 440.90625 316.96875 440.273438 C 317.230469 439.636719 317.429688 438.984375 317.5625 438.308594 C 317.699219 437.636719 317.765625 436.957031 317.765625 436.269531 C 317.765625 435.582031 317.699219 434.902344 317.5625 434.230469 C 317.429688 433.554688 317.230469 432.902344 316.96875 432.269531 C 316.707031 431.632812 316.382812 431.03125 316.003906 430.460938 C 315.621094 429.890625 315.1875 429.359375 314.703125 428.875 C 314.214844 428.390625 313.6875 427.957031 313.117188 427.574219 C 312.546875 427.191406 311.941406 426.871094 311.308594 426.609375 C 310.675781 426.34375 310.019531 426.148438 309.347656 426.011719 C 308.671875 425.878906 307.992188 425.8125 307.308594 425.8125 Z M 307.308594 425.824219 " fill-opacity="1" fill-rule="nonzero"/></g><path fill="#96a3fa" d="M 399.484375 419.054688 C 391.679688 419.054688 383.875 418.984375 376.074219 418.914062 C 370.988281 418.949219 365.96875 418.394531 361.011719 417.25 C 356.054688 416.109375 351.300781 414.410156 346.742188 412.15625 C 344.585938 411.035156 342.507812 409.78125 340.511719 408.394531 C 338.515625 407.007812 336.617188 405.5 334.8125 403.871094 C 333.011719 402.242188 331.316406 400.503906 329.738281 398.660156 C 328.15625 396.8125 326.699219 394.875 325.363281 392.84375 C 324.03125 390.8125 322.832031 388.703125 321.769531 386.515625 C 320.707031 384.332031 319.785156 382.089844 319.007812 379.785156 C 318.230469 377.484375 317.605469 375.140625 317.125 372.757812 C 316.648438 370.375 316.324219 367.96875 316.15625 365.546875 C 272.191406 365.476562 228.230469 365.546875 184.265625 365.753906 C 182.910156 365.710938 181.558594 365.734375 180.203125 365.828125 C 178.851562 365.925781 177.507812 366.089844 176.171875 366.324219 C 174.835938 366.558594 173.515625 366.863281 172.210938 367.238281 C 170.90625 367.609375 169.625 368.046875 168.367188 368.554688 C 167.109375 369.058594 165.882812 369.628906 164.683594 370.265625 C 163.484375 370.898438 162.320312 371.59375 161.195312 372.347656 C 160.066406 373.101562 158.984375 373.914062 157.941406 374.78125 C 156.898438 375.648438 155.902344 376.566406 154.957031 377.539062 C 154.011719 378.511719 153.117188 379.527344 152.277344 380.589844 C 151.433594 381.65625 150.652344 382.761719 149.925781 383.90625 C 149.199219 385.050781 148.535156 386.230469 147.933594 387.445312 C 147.332031 388.660156 146.792969 389.90625 146.320312 391.175781 C 145.84375 392.445312 145.4375 393.738281 145.097656 395.050781 C 144.761719 396.363281 144.492188 397.691406 144.289062 399.03125 C 144.089844 400.375 143.957031 401.722656 143.898438 403.078125 C 143.835938 404.433594 143.847656 405.785156 143.925781 407.140625 C 143.71875 445.949219 143.71875 484.730469 143.925781 523.492188 C 143.855469 524.84375 143.855469 526.195312 143.925781 527.546875 C 143.992188 528.898438 144.132812 530.246094 144.34375 531.582031 C 144.550781 532.921875 144.832031 534.242188 145.175781 535.550781 C 145.523438 536.859375 145.9375 538.148438 146.421875 539.414062 C 146.902344 540.679688 147.445312 541.914062 148.058594 543.125 C 148.667969 544.332031 149.339844 545.507812 150.070312 546.644531 C 150.800781 547.785156 151.59375 548.882812 152.4375 549.9375 C 153.285156 550.996094 154.183594 552.003906 155.136719 552.96875 C 156.085938 553.929688 157.085938 554.84375 158.132812 555.699219 C 159.179688 556.558594 160.265625 557.363281 161.398438 558.109375 C 162.527344 558.855469 163.691406 559.539062 164.894531 560.164062 C 166.09375 560.789062 167.324219 561.347656 168.585938 561.84375 C 169.84375 562.339844 171.128906 562.769531 172.429688 563.132812 C 173.734375 563.496094 175.054688 563.789062 176.390625 564.015625 C 177.726562 564.242188 179.070312 564.398438 180.417969 564.484375 C 181.769531 564.570312 183.121094 564.582031 184.476562 564.527344 C 191.652344 564.667969 198.898438 564.808594 206.074219 564.527344 C 207.957031 564.277344 209.820312 564.398438 211.65625 564.894531 C 213.492188 565.386719 215.160156 566.21875 216.664062 567.386719 C 218.046875 569.003906 219.054688 570.828125 219.683594 572.863281 C 220.316406 574.898438 220.515625 576.972656 220.285156 579.089844 C 219.9375 607.097656 219.171875 632.738281 218.964844 638.171875 C 231.425781 627.757812 242.851562 616.308594 253.242188 603.824219 C 262.4375 592.746094 273.585938 583.480469 283.617188 573.167969 C 284.929688 571.695312 286.390625 570.386719 287.996094 569.242188 C 289.605469 568.097656 291.320312 567.144531 293.140625 566.386719 C 294.960938 565.628906 296.84375 565.082031 298.789062 564.746094 C 300.730469 564.410156 302.6875 564.296875 304.660156 564.402344 C 331.902344 564.890625 359.074219 564.75 386.316406 564.542969 C 387.691406 564.636719 389.066406 564.660156 390.445312 564.605469 C 391.824219 564.554688 393.195312 564.429688 394.5625 564.230469 C 395.925781 564.03125 397.277344 563.757812 398.613281 563.414062 C 399.949219 563.070312 401.261719 562.65625 402.554688 562.171875 C 403.847656 561.6875 405.109375 561.136719 406.339844 560.515625 C 407.574219 559.898438 408.769531 559.214844 409.929688 558.46875 C 411.089844 557.71875 412.207031 556.914062 413.277344 556.046875 C 414.351562 555.179688 415.375 554.257812 416.351562 553.28125 C 417.324219 552.304688 418.246094 551.28125 419.109375 550.207031 C 419.972656 549.128906 420.777344 548.011719 421.523438 546.851562 C 422.269531 545.691406 422.949219 544.492188 423.570312 543.261719 C 424.1875 542.027344 424.734375 540.761719 425.21875 539.472656 C 425.699219 538.179688 426.109375 536.863281 426.453125 535.527344 C 426.792969 534.191406 427.0625 532.839844 427.261719 531.476562 C 427.457031 530.109375 427.582031 528.738281 427.632812 527.359375 C 427.679688 525.980469 427.65625 524.601562 427.558594 523.226562 C 427.769531 488.53125 427.769531 453.8125 427.558594 419.066406 C 418.222656 419.191406 408.820312 419.191406 399.484375 419.054688 Z M 186.425781 425.8125 L 307.308594 425.8125 C 307.992188 425.8125 308.671875 425.878906 309.347656 426.011719 C 310.019531 426.148438 310.671875 426.34375 311.304688 426.609375 C 311.941406 426.871094 312.542969 427.191406 313.113281 427.574219 C 313.683594 427.953125 314.210938 428.386719 314.695312 428.875 C 315.183594 429.359375 315.613281 429.886719 315.996094 430.457031 C 316.378906 431.027344 316.699219 431.628906 316.960938 432.261719 C 317.226562 432.898438 317.421875 433.550781 317.558594 434.222656 C 317.691406 434.898438 317.757812 435.578125 317.757812 436.261719 C 317.757812 436.949219 317.691406 437.628906 317.558594 438.300781 C 317.421875 438.976562 317.226562 439.628906 316.960938 440.261719 C 316.699219 440.894531 316.378906 441.5 315.996094 442.070312 C 315.613281 442.640625 315.183594 443.167969 314.695312 443.652344 C 314.210938 444.136719 313.683594 444.570312 313.113281 444.953125 C 312.542969 445.332031 311.941406 445.65625 311.304688 445.917969 C 310.671875 446.179688 310.019531 446.378906 309.347656 446.511719 C 308.671875 446.648438 307.992188 446.714844 307.308594 446.714844 L 186.425781 446.714844 C 185.738281 446.714844 185.058594 446.648438 184.386719 446.511719 C 183.714844 446.378906 183.0625 446.179688 182.425781 445.917969 C 181.792969 445.65625 181.191406 445.332031 180.621094 444.953125 C 180.050781 444.570312 179.523438 444.136719 179.035156 443.652344 C 178.550781 443.167969 178.117188 442.640625 177.738281 442.070312 C 177.355469 441.5 177.035156 440.894531 176.769531 440.261719 C 176.507812 439.628906 176.308594 438.976562 176.175781 438.300781 C 176.042969 437.628906 175.976562 436.949219 175.976562 436.261719 C 175.976562 435.578125 176.042969 434.898438 176.175781 434.222656 C 176.308594 433.550781 176.507812 432.898438 176.769531 432.261719 C 177.035156 431.628906 177.355469 431.027344 177.738281 430.457031 C 178.117188 429.886719 178.550781 429.359375 179.035156 428.875 C 179.523438 428.386719 180.050781 427.953125 180.621094 427.574219 C 181.191406 427.191406 181.792969 426.871094 182.425781 426.609375 C 183.0625 426.34375 183.714844 426.148438 184.386719 426.011719 C 185.058594 425.878906 185.738281 425.8125 186.425781 425.8125 Z M 382.96875 502.730469 L 185.589844 502.730469 C 184.902344 502.730469 184.222656 502.664062 183.550781 502.527344 C 182.878906 502.394531 182.226562 502.195312 181.589844 501.933594 C 180.957031 501.671875 180.355469 501.351562 179.785156 500.96875 C 179.214844 500.585938 178.6875 500.152344 178.199219 499.667969 C 177.714844 499.183594 177.28125 498.65625 176.902344 498.085938 C 176.519531 497.515625 176.199219 496.914062 175.933594 496.277344 C 175.671875 495.644531 175.472656 494.992188 175.339844 494.316406 C 175.207031 493.644531 175.140625 492.964844 175.140625 492.277344 C 175.140625 491.59375 175.207031 490.914062 175.339844 490.238281 C 175.472656 489.566406 175.671875 488.914062 175.933594 488.28125 C 176.199219 487.644531 176.519531 487.042969 176.902344 486.472656 C 177.28125 485.902344 177.714844 485.375 178.199219 484.890625 C 178.6875 484.402344 179.214844 483.972656 179.785156 483.589844 C 180.355469 483.207031 180.957031 482.886719 181.589844 482.625 C 182.226562 482.359375 182.878906 482.164062 183.550781 482.027344 C 184.222656 481.894531 184.902344 481.828125 185.589844 481.828125 L 382.96875 481.828125 C 383.65625 481.828125 384.335938 481.898438 385.007812 482.03125 C 385.679688 482.167969 386.332031 482.363281 386.964844 482.628906 C 387.597656 482.890625 388.199219 483.214844 388.769531 483.59375 C 389.339844 483.976562 389.867188 484.410156 390.351562 484.894531 C 390.835938 485.378906 391.269531 485.90625 391.648438 486.476562 C 392.027344 487.046875 392.351562 487.648438 392.613281 488.28125 C 392.875 488.917969 393.074219 489.570312 393.207031 490.242188 C 393.339844 490.914062 393.40625 491.59375 393.40625 492.277344 C 393.40625 492.964844 393.339844 493.644531 393.207031 494.316406 C 393.074219 494.988281 392.875 495.640625 392.613281 496.273438 C 392.351562 496.910156 392.027344 497.511719 391.648438 498.082031 C 391.269531 498.652344 390.835938 499.179688 390.351562 499.664062 C 389.867188 500.148438 389.339844 500.582031 388.769531 500.964844 C 388.199219 501.34375 387.597656 501.667969 386.964844 501.929688 C 386.332031 502.191406 385.679688 502.390625 385.007812 502.527344 C 384.335938 502.660156 383.65625 502.730469 382.96875 502.730469 Z M 382.96875 502.730469 " fill-opacity="1" fill-rule="nonzero"/><path fill="#d7f7ff" d="M 578.332031 200.910156 C 510.679688 200.5625 443.050781 200.5625 375.445312 200.910156 C 374.089844 200.84375 372.738281 200.847656 371.382812 200.925781 C 370.027344 201 368.679688 201.148438 367.34375 201.367188 C 366.003906 201.582031 364.679688 201.871094 363.371094 202.226562 C 362.0625 202.585938 360.777344 203.007812 359.511719 203.5 C 358.246094 203.992188 357.011719 204.550781 355.808594 205.175781 C 354.601562 205.796875 353.433594 206.480469 352.300781 207.226562 C 351.167969 207.972656 350.074219 208.773438 349.027344 209.632812 C 347.980469 210.496094 346.976562 211.40625 346.027344 212.375 C 345.074219 213.339844 344.171875 214.351562 343.328125 215.414062 C 342.480469 216.472656 341.695312 217.574219 340.964844 218.71875 C 340.234375 219.863281 339.566406 221.039062 338.960938 222.253906 C 338.355469 223.46875 337.8125 224.710938 337.339844 225.980469 C 336.863281 227.25 336.457031 228.542969 336.117188 229.855469 C 335.777344 231.167969 335.507812 232.496094 335.308594 233.839844 C 335.109375 235.179688 334.980469 236.53125 334.925781 237.882812 C 334.867188 239.238281 334.882812 240.59375 334.964844 241.949219 C 334.757812 276.644531 334.828125 311.339844 334.964844 346.039062 L 334.964844 358.371094 C 334.972656 360.777344 335.15625 363.167969 335.523438 365.546875 C 338.3125 386.65625 353.5 399.476562 376.210938 399.683594 C 393.140625 399.753906 410.074219 399.894531 427.003906 399.824219 C 433.621094 399.824219 440.171875 399.753906 446.789062 399.683594 C 450.484375 399.683594 454.175781 399.617188 457.867188 399.546875 C 459.84375 399.4375 461.808594 399.550781 463.757812 399.882812 C 465.707031 400.21875 467.597656 400.765625 469.425781 401.523438 C 471.253906 402.285156 472.972656 403.238281 474.585938 404.386719 C 476.199219 405.535156 477.660156 406.847656 478.976562 408.324219 C 488.941406 418.636719 500.160156 427.902344 509.285156 438.980469 C 519.691406 451.445312 531.117188 462.894531 543.5625 473.328125 C 543.425781 467.824219 542.589844 442.253906 542.238281 414.246094 C 542.027344 412.125 542.238281 410.046875 542.882812 408.015625 C 543.523438 405.980469 544.539062 404.15625 545.933594 402.542969 C 547.414062 401.359375 549.070312 400.519531 550.898438 400.023438 C 552.726562 399.527344 554.578125 399.414062 556.453125 399.683594 C 563.628906 399.964844 570.875 399.824219 578.050781 399.683594 C 579.40625 399.742188 580.757812 399.726562 582.109375 399.640625 C 583.460938 399.554688 584.808594 399.402344 586.144531 399.175781 C 587.480469 398.949219 588.800781 398.65625 590.105469 398.296875 C 591.410156 397.933594 592.695312 397.503906 593.953125 397.007812 C 595.214844 396.511719 596.445312 395.953125 597.648438 395.328125 C 598.851562 394.703125 600.019531 394.019531 601.152344 393.273438 C 602.28125 392.527344 603.371094 391.726562 604.417969 390.867188 C 605.46875 390.007812 606.46875 389.097656 607.421875 388.132812 C 608.375 387.171875 609.273438 386.160156 610.121094 385.105469 C 610.972656 384.046875 611.761719 382.949219 612.496094 381.8125 C 613.230469 380.671875 613.902344 379.5 614.515625 378.289062 C 615.125 377.082031 615.671875 375.84375 616.15625 374.578125 C 616.636719 373.3125 617.054688 372.023438 617.402344 370.714844 C 617.753906 369.40625 618.03125 368.082031 618.242188 366.746094 C 618.457031 365.40625 618.597656 364.0625 618.667969 362.707031 C 618.738281 361.355469 618.738281 360 618.671875 358.648438 C 618.878906 319.910156 618.878906 281.128906 618.671875 242.296875 C 618.75 240.941406 618.761719 239.589844 618.699219 238.234375 C 618.640625 236.878906 618.507812 235.53125 618.308594 234.191406 C 618.105469 232.847656 617.835938 231.519531 617.496094 230.207031 C 617.15625 228.894531 616.75 227.601562 616.277344 226.332031 C 615.804688 225.0625 615.265625 223.820312 614.664062 222.605469 C 614.0625 221.390625 613.394531 220.207031 612.671875 219.0625 C 611.945312 217.917969 611.160156 216.8125 610.320312 215.75 C 609.480469 214.683594 608.585938 213.667969 607.640625 212.695312 C 606.691406 211.722656 605.699219 210.804688 604.65625 209.9375 C 603.613281 209.070312 602.53125 208.257812 601.402344 207.503906 C 600.277344 206.75 599.113281 206.054688 597.914062 205.421875 C 596.714844 204.785156 595.488281 204.21875 594.226562 203.710938 C 592.96875 203.207031 591.6875 202.765625 590.386719 202.394531 C 589.082031 202.019531 587.761719 201.71875 586.425781 201.480469 C 585.089844 201.246094 583.746094 201.082031 582.394531 200.984375 C 581.039062 200.890625 579.6875 200.867188 578.332031 200.910156 Z M 506.5 330.570312 L 385.617188 330.570312 C 384.933594 330.570312 384.253906 330.503906 383.578125 330.371094 C 382.90625 330.234375 382.253906 330.039062 381.617188 329.773438 C 380.984375 329.511719 380.382812 329.191406 379.8125 328.808594 C 379.242188 328.429688 378.714844 327.996094 378.226562 327.511719 C 377.742188 327.023438 377.308594 326.496094 376.929688 325.925781 C 376.546875 325.355469 376.226562 324.753906 375.960938 324.121094 C 375.699219 323.484375 375.5 322.832031 375.367188 322.160156 C 375.234375 321.484375 375.167969 320.804688 375.167969 320.121094 C 375.167969 319.433594 375.234375 318.753906 375.367188 318.082031 C 375.5 317.40625 375.699219 316.753906 375.960938 316.121094 C 376.226562 315.488281 376.546875 314.882812 376.929688 314.3125 C 377.308594 313.742188 377.742188 313.214844 378.226562 312.730469 C 378.714844 312.246094 379.242188 311.8125 379.8125 311.429688 C 380.382812 311.050781 380.984375 310.726562 381.617188 310.464844 C 382.253906 310.203125 382.90625 310.003906 383.578125 309.871094 C 384.253906 309.734375 384.933594 309.667969 385.617188 309.667969 L 506.5 309.667969 C 507.183594 309.667969 507.863281 309.734375 508.539062 309.871094 C 509.210938 310.003906 509.863281 310.203125 510.496094 310.464844 C 511.132812 310.726562 511.734375 311.050781 512.304688 311.429688 C 512.875 311.8125 513.402344 312.246094 513.886719 312.730469 C 514.375 313.214844 514.808594 313.742188 515.1875 314.3125 C 515.570312 314.882812 515.890625 315.488281 516.152344 316.121094 C 516.417969 316.753906 516.613281 317.40625 516.75 318.082031 C 516.882812 318.753906 516.949219 319.433594 516.949219 320.121094 C 516.949219 320.804688 516.882812 321.484375 516.75 322.160156 C 516.613281 322.832031 516.417969 323.484375 516.152344 324.121094 C 515.890625 324.753906 515.570312 325.355469 515.1875 325.925781 C 514.808594 326.496094 514.375 327.023438 513.886719 327.511719 C 513.402344 327.996094 512.875 328.429688 512.304688 328.808594 C 511.734375 329.191406 511.132812 329.511719 510.496094 329.773438 C 509.863281 330.039062 509.210938 330.234375 508.539062 330.371094 C 507.863281 330.503906 507.183594 330.570312 506.5 330.570312 Z M 577.007812 275.183594 L 379.554688 275.183594 C 378.871094 275.183594 378.191406 275.113281 377.519531 274.980469 C 376.84375 274.847656 376.191406 274.648438 375.558594 274.386719 C 374.921875 274.125 374.320312 273.800781 373.75 273.421875 C 373.179688 273.039062 372.652344 272.605469 372.167969 272.121094 C 371.679688 271.636719 371.25 271.109375 370.867188 270.535156 C 370.484375 269.964844 370.164062 269.363281 369.902344 268.730469 C 369.640625 268.097656 369.441406 267.441406 369.304688 266.769531 C 369.171875 266.097656 369.105469 265.417969 369.105469 264.730469 C 369.105469 264.042969 369.171875 263.363281 369.304688 262.691406 C 369.441406 262.019531 369.636719 261.367188 369.902344 260.730469 C 370.164062 260.097656 370.484375 259.496094 370.867188 258.925781 C 371.25 258.355469 371.679688 257.828125 372.167969 257.339844 C 372.652344 256.855469 373.179688 256.421875 373.75 256.042969 C 374.320312 255.660156 374.921875 255.339844 375.558594 255.074219 C 376.191406 254.8125 376.84375 254.613281 377.519531 254.480469 C 378.191406 254.347656 378.871094 254.28125 379.554688 254.28125 L 577.007812 254.28125 C 577.691406 254.28125 578.371094 254.347656 579.046875 254.480469 C 579.71875 254.613281 580.371094 254.8125 581.003906 255.074219 C 581.640625 255.339844 582.242188 255.660156 582.8125 256.042969 C 583.382812 256.421875 583.910156 256.855469 584.394531 257.339844 C 584.882812 257.828125 585.316406 258.355469 585.695312 258.925781 C 586.078125 259.496094 586.398438 260.097656 586.660156 260.730469 C 586.925781 261.367188 587.121094 262.019531 587.257812 262.691406 C 587.390625 263.363281 587.457031 264.042969 587.457031 264.730469 C 587.457031 265.417969 587.390625 266.097656 587.257812 266.769531 C 587.121094 267.441406 586.925781 268.097656 586.660156 268.730469 C 586.398438 269.363281 586.078125 269.964844 585.695312 270.535156 C 585.316406 271.109375 584.882812 271.636719 584.394531 272.121094 C 583.910156 272.605469 583.382812 273.039062 582.8125 273.421875 C 582.242188 273.800781 581.640625 274.125 581.003906 274.386719 C 580.371094 274.648438 579.71875 274.847656 579.046875 274.980469 C 578.371094 275.113281 577.691406 275.183594 577.007812 275.183594 Z M 577.007812 275.183594 " fill-opacity="1" fill-rule="nonzero"/></svg>