<svg xmlns="http://www.w3.org/2000/svg" xmlns:xlink="http://www.w3.org/1999/xlink" width="1000" zoomAndPan="magnify" viewBox="0 0 750 749.999995" height="1000" preserveAspectRatio="xMidYMid meet" version="1.0"><defs><clipPath id="221874dd5a"><path d="M 75 114.582031 L 690 114.582031 L 690 635.417969 L 75 635.417969 Z M 75 114.582031 " clip-rule="nonzero"/></clipPath><clipPath id="f2dfe61906"><path d="M 110.25 114.582031 L 654.949219 114.582031 C 664.296875 114.582031 673.265625 118.296875 679.875 124.90625 C 686.484375 131.519531 690.199219 140.484375 690.199219 149.832031 L 690.199219 600.167969 C 690.199219 609.515625 686.484375 618.480469 679.875 625.09375 C 673.265625 631.703125 664.296875 635.417969 654.949219 635.417969 L 110.25 635.417969 C 100.902344 635.417969 91.933594 631.703125 85.324219 625.09375 C 78.714844 618.480469 75 609.515625 75 600.167969 L 75 149.832031 C 75 140.484375 78.714844 131.519531 85.324219 124.90625 C 91.933594 118.296875 100.902344 114.582031 110.25 114.582031 Z M 110.25 114.582031 " clip-rule="nonzero"/></clipPath><clipPath id="da943392b9"><path d="M 75.003906 114.582031 L 690 114.582031 L 690 635.082031 L 75.003906 635.082031 Z M 75.003906 114.582031 " clip-rule="nonzero"/></clipPath><clipPath id="cae484ff04"><path d="M 110.253906 114.582031 L 654.945312 114.582031 C 664.296875 114.582031 673.261719 118.296875 679.871094 124.90625 C 686.480469 131.519531 690.195312 140.484375 690.195312 149.832031 L 690.195312 600.160156 C 690.195312 609.511719 686.480469 618.476562 679.871094 625.085938 C 673.261719 631.699219 664.296875 635.410156 654.945312 635.410156 L 110.253906 635.410156 C 100.902344 635.410156 91.9375 631.699219 85.328125 625.085938 C 78.71875 618.476562 75.003906 609.511719 75.003906 600.160156 L 75.003906 149.832031 C 75.003906 140.484375 78.71875 131.519531 85.328125 124.90625 C 91.9375 118.296875 100.902344 114.582031 110.253906 114.582031 Z M 110.253906 114.582031 " clip-rule="nonzero"/></clipPath><clipPath id="8f9461a56d"><path d="M 106.867188 207 L 658.117188 207 L 658.117188 543 L 106.867188 543 Z M 106.867188 207 " clip-rule="nonzero"/></clipPath></defs><g clip-path="url(#221874dd5a)"><g clip-path="url(#f2dfe61906)"><path fill="#ffe577" d="M 75 114.582031 L 689.421875 114.582031 L 689.421875 635.417969 L 75 635.417969 Z M 75 114.582031 " fill-opacity="1" fill-rule="nonzero"/></g></g><g clip-path="url(#da943392b9)"><g clip-path="url(#cae484ff04)"><path stroke-linecap="butt" transform="matrix(0.75, 0, 0, 0.75, 75.003265, 114.58308)" fill="none" stroke-linejoin="miter" d="M 47.000857 -0.00139835 L 773.2561 -0.00139835 C 785.724851 -0.00139835 797.677977 4.951727 806.490477 13.764227 C 815.302978 22.581936 820.256103 34.535062 820.256103 46.998604 L 820.256103 647.436133 C 820.256103 659.904884 815.302978 671.858009 806.490477 680.67051 C 797.677977 689.488219 785.724851 694.436135 773.2561 694.436135 L 47.000857 694.436135 C 34.532106 694.436135 22.578981 689.488219 13.76648 680.67051 C 4.95398 671.858009 0.000854474 659.904884 0.000854474 647.436133 L 0.000854474 46.998604 C 0.000854474 34.535062 4.95398 22.581936 13.76648 13.764227 C 22.578981 4.951727 34.532106 -0.00139835 47.000857 -0.00139835 Z M 47.000857 -0.00139835 " stroke="#000000" stroke-width="54" stroke-opacity="1" stroke-miterlimit="4"/></g></g><g clip-path="url(#8f9461a56d)"><path fill="#000000" d="M 645.039062 357.9375 C 640.277344 351.816406 527.367188 207.570312 382.542969 207.570312 C 237.71875 207.570312 124.761719 351.765625 120.050781 357.9375 L 106.867188 374.996094 L 120.050781 392.050781 C 124.8125 398.175781 237.71875 542.421875 382.542969 542.421875 C 527.367188 542.421875 640.328125 398.226562 645.039062 392.050781 L 658.222656 374.996094 Z M 645.039062 357.9375 " fill-opacity="1" fill-rule="nonzero"/></g><path fill="#ffffff" d="M 622.957031 374.996094 C 622.957031 374.996094 515.335938 514.484375 382.542969 514.484375 C 249.753906 514.484375 142.128906 374.996094 142.128906 374.996094 C 142.128906 374.996094 249.753906 235.507812 382.542969 235.507812 C 515.335938 235.507812 622.957031 374.996094 622.957031 374.996094 Z M 622.957031 374.996094 " fill-opacity="1" fill-rule="nonzero"/><path fill="#7f95f1" d="M 500.527344 374.996094 C 500.527344 376.925781 500.480469 378.855469 500.386719 380.785156 C 500.289062 382.714844 500.148438 384.640625 499.960938 386.558594 C 499.769531 388.480469 499.535156 390.398438 499.25 392.308594 C 498.96875 394.21875 498.636719 396.121094 498.261719 398.011719 C 497.882812 399.90625 497.460938 401.789062 496.992188 403.664062 C 496.523438 405.535156 496.007812 407.398438 495.449219 409.246094 C 494.886719 411.09375 494.28125 412.925781 493.628906 414.742188 C 492.980469 416.5625 492.285156 418.363281 491.546875 420.144531 C 490.808594 421.929688 490.027344 423.695312 489.199219 425.441406 C 488.375 427.1875 487.507812 428.910156 486.597656 430.613281 C 485.6875 432.316406 484.734375 433.996094 483.742188 435.652344 C 482.75 437.308594 481.714844 438.9375 480.644531 440.542969 C 479.570312 442.148438 478.460938 443.726562 477.308594 445.277344 C 476.160156 446.828125 474.972656 448.351562 473.746094 449.84375 C 472.523438 451.335938 471.261719 452.796875 469.964844 454.230469 C 468.667969 455.660156 467.335938 457.058594 465.972656 458.421875 C 464.605469 459.789062 463.207031 461.117188 461.777344 462.414062 C 460.347656 463.710938 458.886719 464.972656 457.390625 466.199219 C 455.898438 467.421875 454.378906 468.609375 452.828125 469.761719 C 451.277344 470.910156 449.699219 472.023438 448.09375 473.09375 C 446.488281 474.167969 444.855469 475.199219 443.199219 476.195312 C 441.542969 477.1875 439.863281 478.136719 438.160156 479.046875 C 436.457031 479.957031 434.734375 480.824219 432.988281 481.652344 C 431.242188 482.476562 429.480469 483.257812 427.695312 484 C 425.910156 484.738281 424.109375 485.433594 422.292969 486.082031 C 420.472656 486.734375 418.640625 487.339844 416.792969 487.898438 C 414.945312 488.460938 413.085938 488.972656 411.210938 489.445312 C 409.339844 489.914062 407.457031 490.335938 405.5625 490.710938 C 403.667969 491.089844 401.765625 491.417969 399.855469 491.703125 C 397.945312 491.984375 396.03125 492.222656 394.109375 492.410156 C 392.1875 492.601562 390.261719 492.742188 388.332031 492.835938 C 386.40625 492.933594 384.476562 492.980469 382.542969 492.980469 C 380.613281 492.980469 378.683594 492.933594 376.753906 492.835938 C 374.828125 492.742188 372.902344 492.601562 370.980469 492.410156 C 369.058594 492.222656 367.144531 491.984375 365.234375 491.703125 C 363.324219 491.417969 361.421875 491.089844 359.527344 490.710938 C 357.632812 490.335938 355.75 489.914062 353.875 489.445312 C 352.003906 488.972656 350.144531 488.460938 348.296875 487.898438 C 346.449219 487.339844 344.613281 486.734375 342.796875 486.082031 C 340.980469 485.433594 339.179688 484.738281 337.394531 484 C 335.609375 483.257812 333.84375 482.476562 332.101562 481.652344 C 330.355469 480.824219 328.628906 479.957031 326.925781 479.046875 C 325.222656 478.136719 323.546875 477.1875 321.890625 476.195312 C 320.234375 475.199219 318.601562 474.167969 316.996094 473.09375 C 315.390625 472.023438 313.8125 470.910156 312.261719 469.761719 C 310.710938 468.609375 309.1875 467.421875 307.695312 466.199219 C 306.203125 464.972656 304.742188 463.710938 303.3125 462.414062 C 301.882812 461.117188 300.484375 459.789062 299.117188 458.421875 C 297.753906 457.058594 296.421875 455.660156 295.125 454.230469 C 293.828125 452.796875 292.566406 451.335938 291.34375 449.84375 C 290.117188 448.351562 288.929688 446.828125 287.777344 445.277344 C 286.628906 443.726562 285.515625 442.148438 284.445312 440.542969 C 283.371094 438.9375 282.339844 437.308594 281.347656 435.652344 C 280.355469 433.996094 279.402344 432.316406 278.492188 430.613281 C 277.582031 428.910156 276.714844 427.1875 275.886719 425.441406 C 275.0625 423.695312 274.28125 421.929688 273.542969 420.144531 C 272.804688 418.363281 272.109375 416.5625 271.457031 414.742188 C 270.808594 412.925781 270.203125 411.09375 269.640625 409.246094 C 269.082031 407.398438 268.566406 405.535156 268.097656 403.664062 C 267.628906 401.789062 267.203125 399.90625 266.828125 398.011719 C 266.453125 396.121094 266.121094 394.21875 265.839844 392.308594 C 265.554688 390.398438 265.320312 388.480469 265.128906 386.558594 C 264.941406 384.640625 264.796875 382.714844 264.703125 380.785156 C 264.609375 378.855469 264.5625 376.925781 264.5625 374.996094 C 264.5625 373.066406 264.609375 371.136719 264.703125 369.207031 C 264.796875 367.277344 264.941406 365.351562 265.128906 363.429688 C 265.320312 361.511719 265.554688 359.59375 265.839844 357.683594 C 266.121094 355.773438 266.453125 353.871094 266.828125 351.976562 C 267.203125 350.085938 267.628906 348.203125 268.097656 346.328125 C 268.566406 344.457031 269.082031 342.59375 269.640625 340.746094 C 270.203125 338.898438 270.808594 337.066406 271.457031 335.25 C 272.109375 333.429688 272.804688 331.628906 273.542969 329.84375 C 274.28125 328.0625 275.0625 326.296875 275.890625 324.550781 C 276.714844 322.804688 277.582031 321.082031 278.492188 319.378906 C 279.402344 317.675781 280.355469 315.996094 281.347656 314.339844 C 282.339844 312.683594 283.371094 311.054688 284.445312 309.449219 C 285.515625 307.84375 286.628906 306.265625 287.777344 304.714844 C 288.929688 303.164062 290.117188 301.640625 291.34375 300.148438 C 292.566406 298.65625 293.828125 297.195312 295.125 295.761719 C 296.421875 294.332031 297.753906 292.933594 299.117188 291.570312 C 300.484375 290.203125 301.882812 288.871094 303.3125 287.574219 C 304.742188 286.28125 306.203125 285.019531 307.695312 283.792969 C 309.1875 282.570312 310.710938 281.382812 312.261719 280.230469 C 313.8125 279.082031 315.390625 277.96875 316.996094 276.894531 C 318.601562 275.824219 320.234375 274.789062 321.890625 273.796875 C 323.546875 272.804688 325.222656 271.855469 326.925781 270.945312 C 328.628906 270.035156 330.355469 269.164062 332.101562 268.339844 C 333.84375 267.515625 335.609375 266.734375 337.394531 265.992188 C 339.179688 265.253906 340.980469 264.558594 342.796875 263.910156 C 344.613281 263.257812 346.449219 262.652344 348.296875 262.09375 C 350.144531 261.53125 352.003906 261.019531 353.875 260.546875 C 355.75 260.078125 357.632812 259.65625 359.527344 259.28125 C 361.421875 258.902344 363.324219 258.574219 365.234375 258.289062 C 367.144531 258.007812 369.058594 257.769531 370.980469 257.582031 C 372.902344 257.390625 374.828125 257.25 376.753906 257.15625 C 378.683594 257.058594 380.613281 257.011719 382.542969 257.011719 C 384.476562 257.011719 386.40625 257.058594 388.332031 257.15625 C 390.261719 257.25 392.1875 257.390625 394.109375 257.582031 C 396.03125 257.769531 397.945312 258.007812 399.855469 258.289062 C 401.765625 258.574219 403.667969 258.902344 405.5625 259.28125 C 407.457031 259.65625 409.339844 260.078125 411.210938 260.546875 C 413.085938 261.015625 414.945312 261.53125 416.792969 262.09375 C 418.640625 262.652344 420.472656 263.257812 422.292969 263.910156 C 424.109375 264.558594 425.910156 265.253906 427.695312 265.992188 C 429.480469 266.734375 431.242188 267.515625 432.988281 268.339844 C 434.734375 269.164062 436.457031 270.035156 438.160156 270.945312 C 439.863281 271.855469 441.542969 272.804688 443.199219 273.796875 C 444.855469 274.789062 446.488281 275.824219 448.09375 276.894531 C 449.699219 277.96875 451.277344 279.082031 452.828125 280.230469 C 454.378906 281.382812 455.898438 282.570312 457.390625 283.792969 C 458.886719 285.019531 460.347656 286.28125 461.777344 287.574219 C 463.207031 288.871094 464.605469 290.203125 465.972656 291.570312 C 467.335938 292.933594 468.667969 294.332031 469.964844 295.761719 C 471.261719 297.195312 472.523438 298.65625 473.746094 300.148438 C 474.972656 301.640625 476.160156 303.164062 477.308594 304.714844 C 478.460938 306.265625 479.570312 307.84375 480.644531 309.449219 C 481.714844 311.054688 482.75 312.683594 483.742188 314.339844 C 484.734375 315.996094 485.6875 317.675781 486.597656 319.378906 C 487.507812 321.082031 488.375 322.804688 489.199219 324.550781 C 490.027344 326.296875 490.808594 328.0625 491.546875 329.84375 C 492.285156 331.628906 492.980469 333.429688 493.628906 335.25 C 494.28125 337.066406 494.886719 338.898438 495.449219 340.746094 C 496.007812 342.59375 496.523438 344.457031 496.992188 346.328125 C 497.460938 348.203125 497.882812 350.085938 498.261719 351.976562 C 498.636719 353.871094 498.96875 355.773438 499.25 357.683594 C 499.535156 359.59375 499.769531 361.511719 499.960938 363.429688 C 500.148438 365.351562 500.289062 367.277344 500.386719 369.207031 C 500.480469 371.136719 500.527344 373.066406 500.527344 374.996094 Z M 500.527344 374.996094 " fill-opacity="1" fill-rule="nonzero"/><path fill="#000000" d="M 382.542969 304.832031 C 355.808594 304.832031 332.578125 319.796875 320.753906 341.773438 L 353.976562 374.996094 L 320.753906 408.21875 C 332.578125 430.195312 355.808594 445.15625 382.542969 445.15625 C 421.261719 445.15625 452.707031 413.765625 452.707031 374.996094 C 452.707031 336.226562 421.3125 304.832031 382.542969 304.832031 Z M 382.542969 304.832031 " fill-opacity="1" fill-rule="nonzero"/></svg>