<svg xmlns="http://www.w3.org/2000/svg" xmlns:xlink="http://www.w3.org/1999/xlink" width="1000" zoomAndPan="magnify" viewBox="0 0 750 749.999995" height="1000" preserveAspectRatio="xMidYMid meet" version="1.0"><defs><clipPath id="5c600cbf03"><path d="M 112.832031 43.832031 L 649.917969 43.832031 L 649.917969 706 L 112.832031 706 Z M 112.832031 43.832031 " clip-rule="nonzero"/></clipPath><clipPath id="01238a8bd8"><path d="M 148.082031 43.832031 L 614.667969 43.832031 C 634.136719 43.832031 649.917969 59.613281 649.917969 79.082031 L 649.917969 670.640625 C 649.917969 690.109375 634.136719 705.890625 614.667969 705.890625 L 148.082031 705.890625 C 128.613281 705.890625 112.832031 690.109375 112.832031 670.640625 L 112.832031 79.082031 C 112.832031 59.613281 128.613281 43.832031 148.082031 43.832031 Z M 148.082031 43.832031 " clip-rule="nonzero"/></clipPath><clipPath id="cd9a5583b8"><path d="M 112.835938 43.832031 L 649.832031 43.832031 L 649.832031 706 L 112.835938 706 Z M 112.835938 43.832031 " clip-rule="nonzero"/></clipPath><clipPath id="419961e460"><path d="M 148.085938 43.832031 L 614.664062 43.832031 C 634.128906 43.832031 649.914062 59.613281 649.914062 79.082031 L 649.914062 670.632812 C 649.914062 690.101562 634.128906 705.882812 614.664062 705.882812 L 148.085938 705.882812 C 128.617188 705.882812 112.835938 690.101562 112.835938 670.632812 L 112.835938 79.082031 C 112.835938 59.613281 128.617188 43.832031 148.085938 43.832031 Z M 148.085938 43.832031 " clip-rule="nonzero"/></clipPath><clipPath id="5f286158fe"><path d="M 219.789062 99.1875 L 560.289062 99.1875 L 560.289062 650.4375 L 219.789062 650.4375 Z M 219.789062 99.1875 " clip-rule="nonzero"/></clipPath></defs><g clip-path="url(#5c600cbf03)"><g clip-path="url(#01238a8bd8)"><path fill="#96a3fa" d="M 112.832031 43.832031 L 649.917969 43.832031 L 649.917969 706.796875 L 112.832031 706.796875 Z M 112.832031 43.832031 " fill-opacity="1" fill-rule="nonzero"/></g></g><g clip-path="url(#cd9a5583b8)"><g clip-path="url(#419961e460)"><path stroke-linecap="butt" transform="matrix(0.75, 0, 0, 0.75, 112.835176, 43.831304)" fill="none" stroke-linejoin="miter" d="M 47.001014 0.000969315 L 669.105171 0.000969315 C 695.058296 0.000969315 716.105171 21.042636 716.105171 47.000969 L 716.105171 835.735332 C 716.105171 861.693664 695.058296 882.735331 669.105171 882.735331 L 47.001014 882.735331 C 21.042681 882.735331 0.00101487 861.693664 0.00101487 835.735332 L 0.00101487 47.000969 C 0.00101487 21.042636 21.042681 0.000969315 47.001014 0.000969315 Z M 47.001014 0.000969315 " stroke="#000000" stroke-width="54" stroke-opacity="1" stroke-miterlimit="4"/></g></g><path fill="#fcd34d" d="M 494.808594 165.105469 L 494.808594 227.726562 L 285.273438 228.089844 L 285.273438 165.105469 C 285.273438 136.152344 308.722656 112.679688 337.65625 112.679688 L 442.425781 112.679688 C 471.359375 112.679688 494.808594 136.152344 494.808594 165.105469 Z M 285.273438 467.648438 L 285.273438 584.515625 C 285.273438 613.472656 308.722656 636.941406 337.65625 636.941406 L 442.425781 636.941406 C 471.359375 636.941406 494.808594 613.472656 494.808594 584.515625 L 494.808594 470.199219 Z M 285.273438 467.648438 " fill-opacity="1" fill-rule="nonzero"/><path fill="#ffffff" d="M 547.195312 348.597656 C 547.195312 435.460938 476.835938 505.875 390.039062 505.875 C 303.246094 505.875 232.886719 435.460938 232.886719 348.597656 C 232.886719 261.734375 303.246094 191.320312 390.039062 191.320312 C 476.835938 191.320312 547.195312 261.734375 547.195312 348.597656 Z M 547.195312 348.597656 " fill-opacity="1" fill-rule="nonzero"/><g clip-path="url(#5f286158fe)"><path fill="#0f172a" d="M 442.425781 99.574219 L 337.65625 99.574219 C 301.554688 99.574219 272.175781 128.960938 272.175781 165.105469 L 272.175781 225.9375 C 239.957031 256.953125 219.789062 300.433594 219.789062 348.597656 C 219.789062 396.765625 239.957031 440.242188 272.175781 471.261719 L 272.175781 584.515625 C 272.175781 620.660156 301.554688 650.050781 337.65625 650.050781 L 442.425781 650.050781 C 478.527344 650.050781 507.90625 620.660156 507.90625 584.515625 L 507.90625 471.261719 C 540.125 440.242188 560.289062 396.765625 560.289062 348.597656 C 560.289062 300.433594 540.125 256.953125 507.90625 225.9375 L 507.90625 165.105469 C 507.90625 128.960938 478.527344 99.574219 442.425781 99.574219 Z M 298.367188 165.105469 C 298.367188 143.425781 315.992188 125.789062 337.65625 125.789062 L 442.425781 125.789062 C 464.089844 125.789062 481.714844 143.425781 481.714844 165.105469 L 481.714844 205.253906 C 455.21875 188.222656 423.800781 178.214844 390.039062 178.214844 C 356.28125 178.214844 324.863281 188.222656 298.367188 205.253906 Z M 481.714844 584.515625 C 481.714844 606.195312 464.089844 623.835938 442.425781 623.835938 L 337.65625 623.835938 C 315.992188 623.835938 298.367188 606.195312 298.367188 584.515625 L 298.367188 491.941406 C 324.863281 508.976562 356.28125 518.984375 390.039062 518.984375 C 423.800781 518.984375 455.21875 508.976562 481.714844 491.941406 Z M 534.097656 348.597656 C 534.097656 428.082031 469.472656 492.769531 390.039062 492.769531 C 310.609375 492.769531 245.984375 428.082031 245.984375 348.597656 C 245.984375 269.113281 310.609375 204.425781 390.039062 204.425781 C 469.472656 204.425781 534.097656 269.113281 534.097656 348.597656 Z M 455.523438 348.597656 C 455.523438 355.84375 449.664062 361.703125 442.425781 361.703125 L 390.039062 361.703125 C 385.667969 361.703125 381.574219 359.503906 379.144531 355.867188 L 326.761719 277.226562 C 322.746094 271.210938 324.367188 263.074219 330.394531 259.050781 C 336.417969 255.03125 344.535156 256.644531 348.554688 262.6875 L 397.050781 335.488281 L 442.429688 335.488281 C 449.667969 335.488281 455.523438 341.351562 455.523438 348.597656 Z M 455.523438 348.597656 " fill-opacity="1" fill-rule="nonzero"/></g></svg>